M48
;GenerationSoftware,Autodesk,EAGLE,9.5.1*%
;CreationDate,2020-01-28T11:55:15Z*%
FMAT,2
ICI,OFF
METRIC,TZ,000.000
T6C0.800
T5C0.813
T4C1.000
T3C1.016
T2C2.000
T1C3.200
%
G90
M71
T1
X29210Y60960
X80010Y45720
X80010Y17780
T2
X69140Y37274
T3
X37846Y60960
X40386Y60960
X42926Y60960
X45466Y60960
X48006Y60960
X50546Y60960
X53086Y60960
X55626Y60960
X59690Y60960
X62230Y60960
X64770Y60960
X67310Y60960
X69850Y60960
X72390Y60960
X74930Y60960
X77470Y60960
X46990Y12700
X49530Y12700
X52070Y12700
X54610Y12700
X57150Y12700
X59690Y12700
X64770Y12700
X67310Y12700
X69850Y12700
X72390Y12700
X74930Y12700
X77470Y12700
T4
X20320Y40640
X20320Y38100
X20320Y35560
X20320Y33020
T5
X58420Y22860
X45720Y22860
X64770Y25400
X52070Y25400
X64770Y38100
X52070Y38100
X58420Y43180
X45720Y43180
X64770Y48260
X52070Y48260
X64770Y30480
X52070Y30480
X58420Y27940
X45720Y27940
X58420Y33020
X45720Y33020
T6
X40640Y22860
X40640Y25400
X40640Y27940
X40640Y30480
X40640Y33020
X40640Y35560
X40640Y38100
X40640Y40640
X40640Y43180
X40640Y45720
X40640Y48260
X40640Y50800
M30