G04 EAGLE Gerber RS-274X export*
G75*
%MOMM*%
%FSLAX34Y34*%
%LPD*%
%IN*%
%IPPOS*%
%AMOC8*
5,1,8,0,0,1.08239X$1,22.5*%
G01*
%ADD10C,0.254000*%


D10*
X127000Y88900D02*
X834900Y88900D01*
X834900Y647600D01*
X127000Y647600D01*
X127000Y88900D01*
X308100Y609076D02*
X308032Y608031D01*
X307895Y606992D01*
X307690Y605965D01*
X307419Y604953D01*
X307083Y603961D01*
X306682Y602993D01*
X306218Y602054D01*
X305695Y601146D01*
X305113Y600275D01*
X304475Y599444D01*
X303784Y598657D01*
X303043Y597916D01*
X302256Y597225D01*
X301425Y596588D01*
X300554Y596006D01*
X299646Y595482D01*
X298707Y595018D01*
X297739Y594617D01*
X296747Y594281D01*
X295735Y594010D01*
X294708Y593805D01*
X293669Y593669D01*
X292624Y593600D01*
X291576Y593600D01*
X290531Y593669D01*
X289492Y593805D01*
X288465Y594010D01*
X287453Y594281D01*
X286461Y594617D01*
X285493Y595018D01*
X284554Y595482D01*
X283646Y596006D01*
X282775Y596588D01*
X281944Y597225D01*
X281157Y597916D01*
X280416Y598657D01*
X279725Y599444D01*
X279088Y600275D01*
X278506Y601146D01*
X277982Y602054D01*
X277518Y602993D01*
X277117Y603961D01*
X276781Y604953D01*
X276510Y605965D01*
X276305Y606992D01*
X276169Y608031D01*
X276100Y609076D01*
X276100Y610124D01*
X276169Y611169D01*
X276305Y612208D01*
X276510Y613235D01*
X276781Y614247D01*
X277117Y615239D01*
X277518Y616207D01*
X277982Y617146D01*
X278506Y618054D01*
X279088Y618925D01*
X279725Y619756D01*
X280416Y620543D01*
X281157Y621284D01*
X281944Y621975D01*
X282775Y622613D01*
X283646Y623195D01*
X284554Y623718D01*
X285493Y624182D01*
X286461Y624583D01*
X287453Y624919D01*
X288465Y625190D01*
X289492Y625395D01*
X290531Y625532D01*
X291576Y625600D01*
X292624Y625600D01*
X293669Y625532D01*
X294708Y625395D01*
X295735Y625190D01*
X296747Y624919D01*
X297739Y624583D01*
X298707Y624182D01*
X299646Y623718D01*
X300554Y623195D01*
X301425Y622613D01*
X302256Y621975D01*
X303043Y621284D01*
X303784Y620543D01*
X304475Y619756D01*
X305113Y618925D01*
X305695Y618054D01*
X306218Y617146D01*
X306682Y616207D01*
X307083Y615239D01*
X307419Y614247D01*
X307690Y613235D01*
X307895Y612208D01*
X308032Y611169D01*
X308100Y610124D01*
X308100Y609076D01*
X816100Y456676D02*
X816032Y455631D01*
X815895Y454592D01*
X815690Y453565D01*
X815419Y452553D01*
X815083Y451561D01*
X814682Y450593D01*
X814218Y449654D01*
X813695Y448746D01*
X813113Y447875D01*
X812475Y447044D01*
X811784Y446257D01*
X811043Y445516D01*
X810256Y444825D01*
X809425Y444188D01*
X808554Y443606D01*
X807646Y443082D01*
X806707Y442618D01*
X805739Y442217D01*
X804747Y441881D01*
X803735Y441610D01*
X802708Y441405D01*
X801669Y441269D01*
X800624Y441200D01*
X799576Y441200D01*
X798531Y441269D01*
X797492Y441405D01*
X796465Y441610D01*
X795453Y441881D01*
X794461Y442217D01*
X793493Y442618D01*
X792554Y443082D01*
X791646Y443606D01*
X790775Y444188D01*
X789944Y444825D01*
X789157Y445516D01*
X788416Y446257D01*
X787725Y447044D01*
X787088Y447875D01*
X786506Y448746D01*
X785982Y449654D01*
X785518Y450593D01*
X785117Y451561D01*
X784781Y452553D01*
X784510Y453565D01*
X784305Y454592D01*
X784169Y455631D01*
X784100Y456676D01*
X784100Y457724D01*
X784169Y458769D01*
X784305Y459808D01*
X784510Y460835D01*
X784781Y461847D01*
X785117Y462839D01*
X785518Y463807D01*
X785982Y464746D01*
X786506Y465654D01*
X787088Y466525D01*
X787725Y467356D01*
X788416Y468143D01*
X789157Y468884D01*
X789944Y469575D01*
X790775Y470213D01*
X791646Y470795D01*
X792554Y471318D01*
X793493Y471782D01*
X794461Y472183D01*
X795453Y472519D01*
X796465Y472790D01*
X797492Y472995D01*
X798531Y473132D01*
X799576Y473200D01*
X800624Y473200D01*
X801669Y473132D01*
X802708Y472995D01*
X803735Y472790D01*
X804747Y472519D01*
X805739Y472183D01*
X806707Y471782D01*
X807646Y471318D01*
X808554Y470795D01*
X809425Y470213D01*
X810256Y469575D01*
X811043Y468884D01*
X811784Y468143D01*
X812475Y467356D01*
X813113Y466525D01*
X813695Y465654D01*
X814218Y464746D01*
X814682Y463807D01*
X815083Y462839D01*
X815419Y461847D01*
X815690Y460835D01*
X815895Y459808D01*
X816032Y458769D01*
X816100Y457724D01*
X816100Y456676D01*
X816100Y177276D02*
X816032Y176231D01*
X815895Y175192D01*
X815690Y174165D01*
X815419Y173153D01*
X815083Y172161D01*
X814682Y171193D01*
X814218Y170254D01*
X813695Y169346D01*
X813113Y168475D01*
X812475Y167644D01*
X811784Y166857D01*
X811043Y166116D01*
X810256Y165425D01*
X809425Y164788D01*
X808554Y164206D01*
X807646Y163682D01*
X806707Y163218D01*
X805739Y162817D01*
X804747Y162481D01*
X803735Y162210D01*
X802708Y162005D01*
X801669Y161869D01*
X800624Y161800D01*
X799576Y161800D01*
X798531Y161869D01*
X797492Y162005D01*
X796465Y162210D01*
X795453Y162481D01*
X794461Y162817D01*
X793493Y163218D01*
X792554Y163682D01*
X791646Y164206D01*
X790775Y164788D01*
X789944Y165425D01*
X789157Y166116D01*
X788416Y166857D01*
X787725Y167644D01*
X787088Y168475D01*
X786506Y169346D01*
X785982Y170254D01*
X785518Y171193D01*
X785117Y172161D01*
X784781Y173153D01*
X784510Y174165D01*
X784305Y175192D01*
X784169Y176231D01*
X784100Y177276D01*
X784100Y178324D01*
X784169Y179369D01*
X784305Y180408D01*
X784510Y181435D01*
X784781Y182447D01*
X785117Y183439D01*
X785518Y184407D01*
X785982Y185346D01*
X786506Y186254D01*
X787088Y187125D01*
X787725Y187956D01*
X788416Y188743D01*
X789157Y189484D01*
X789944Y190175D01*
X790775Y190813D01*
X791646Y191395D01*
X792554Y191918D01*
X793493Y192382D01*
X794461Y192783D01*
X795453Y193119D01*
X796465Y193390D01*
X797492Y193595D01*
X798531Y193732D01*
X799576Y193800D01*
X800624Y193800D01*
X801669Y193732D01*
X802708Y193595D01*
X803735Y193390D01*
X804747Y193119D01*
X805739Y192783D01*
X806707Y192382D01*
X807646Y191918D01*
X808554Y191395D01*
X809425Y190813D01*
X810256Y190175D01*
X811043Y189484D01*
X811784Y188743D01*
X812475Y187956D01*
X813113Y187125D01*
X813695Y186254D01*
X814218Y185346D01*
X814682Y184407D01*
X815083Y183439D01*
X815419Y182447D01*
X815690Y181435D01*
X815895Y180408D01*
X816032Y179369D01*
X816100Y178324D01*
X816100Y177276D01*
X701396Y372301D02*
X701320Y371432D01*
X701168Y370572D01*
X700942Y369728D01*
X700644Y368908D01*
X700275Y368116D01*
X699838Y367360D01*
X699337Y366645D01*
X698776Y365976D01*
X698158Y365358D01*
X697489Y364797D01*
X696774Y364296D01*
X696018Y363859D01*
X695226Y363490D01*
X694406Y363192D01*
X693562Y362966D01*
X692703Y362814D01*
X691833Y362738D01*
X690959Y362738D01*
X690090Y362814D01*
X689230Y362966D01*
X688386Y363192D01*
X687566Y363490D01*
X686774Y363859D01*
X686018Y364296D01*
X685303Y364797D01*
X684634Y365358D01*
X684016Y365976D01*
X683455Y366645D01*
X682954Y367360D01*
X682517Y368116D01*
X682148Y368908D01*
X681850Y369728D01*
X681624Y370572D01*
X681472Y371432D01*
X681396Y372301D01*
X681396Y373175D01*
X681472Y374045D01*
X681624Y374904D01*
X681850Y375748D01*
X682148Y376568D01*
X682517Y377360D01*
X682954Y378116D01*
X683455Y378831D01*
X684016Y379500D01*
X684634Y380118D01*
X685303Y380679D01*
X686018Y381180D01*
X686774Y381617D01*
X687566Y381986D01*
X688386Y382284D01*
X689230Y382510D01*
X690090Y382662D01*
X690959Y382738D01*
X691833Y382738D01*
X692703Y382662D01*
X693562Y382510D01*
X694406Y382284D01*
X695226Y381986D01*
X696018Y381617D01*
X696774Y381180D01*
X697489Y380679D01*
X698158Y380118D01*
X698776Y379500D01*
X699337Y378831D01*
X699838Y378116D01*
X700275Y377360D01*
X700644Y376568D01*
X700942Y375748D01*
X701168Y374904D01*
X701320Y374045D01*
X701396Y373175D01*
X701396Y372301D01*
M02*
