G04 EAGLE Gerber RS-274X export*
G75*
%MOMM*%
%FSLAX34Y34*%
%LPD*%
%INSilkscreen Top*%
%IPPOS*%
%AMOC8*
5,1,8,0,0,1.08239X$1,22.5*%
G01*
%ADD10C,0.152400*%
%ADD11C,0.609600*%
%ADD12R,0.863600X0.609600*%
%ADD13C,0.127000*%
%ADD14C,0.101600*%


D10*
X524510Y622300D02*
X537210Y622300D01*
X543560Y615950D01*
X543560Y603250D01*
X537210Y596900D01*
X499110Y622300D02*
X492760Y615950D01*
X499110Y622300D02*
X511810Y622300D01*
X518160Y615950D01*
X518160Y603250D01*
X511810Y596900D01*
X499110Y596900D01*
X492760Y603250D01*
X518160Y615950D02*
X524510Y622300D01*
X518160Y603250D02*
X524510Y596900D01*
X537210Y596900D01*
X461010Y622300D02*
X448310Y622300D01*
X461010Y622300D02*
X467360Y615950D01*
X467360Y603250D01*
X461010Y596900D01*
X467360Y615950D02*
X473710Y622300D01*
X486410Y622300D01*
X492760Y615950D01*
X492760Y603250D01*
X486410Y596900D01*
X473710Y596900D01*
X467360Y603250D01*
X422910Y622300D02*
X416560Y615950D01*
X422910Y622300D02*
X435610Y622300D01*
X441960Y615950D01*
X441960Y603250D01*
X435610Y596900D01*
X422910Y596900D01*
X416560Y603250D01*
X441960Y615950D02*
X448310Y622300D01*
X441960Y603250D02*
X448310Y596900D01*
X461010Y596900D01*
X384810Y622300D02*
X372110Y622300D01*
X384810Y622300D02*
X391160Y615950D01*
X391160Y603250D01*
X384810Y596900D01*
X391160Y615950D02*
X397510Y622300D01*
X410210Y622300D01*
X416560Y615950D01*
X416560Y603250D01*
X410210Y596900D01*
X397510Y596900D01*
X391160Y603250D01*
X365760Y603250D02*
X365760Y615950D01*
X372110Y622300D01*
X365760Y603250D02*
X372110Y596900D01*
X384810Y596900D01*
X549910Y622300D02*
X562610Y622300D01*
X568960Y615950D01*
X568960Y603250D01*
X562610Y596900D01*
X543560Y615950D02*
X549910Y622300D01*
X543560Y603250D02*
X549910Y596900D01*
X562610Y596900D01*
X742950Y622300D02*
X755650Y622300D01*
X762000Y615950D01*
X762000Y603250D01*
X755650Y596900D01*
X717550Y622300D02*
X711200Y615950D01*
X717550Y622300D02*
X730250Y622300D01*
X736600Y615950D01*
X736600Y603250D01*
X730250Y596900D01*
X717550Y596900D01*
X711200Y603250D01*
X736600Y615950D02*
X742950Y622300D01*
X736600Y603250D02*
X742950Y596900D01*
X755650Y596900D01*
X679450Y622300D02*
X666750Y622300D01*
X679450Y622300D02*
X685800Y615950D01*
X685800Y603250D01*
X679450Y596900D01*
X685800Y615950D02*
X692150Y622300D01*
X704850Y622300D01*
X711200Y615950D01*
X711200Y603250D01*
X704850Y596900D01*
X692150Y596900D01*
X685800Y603250D01*
X641350Y622300D02*
X635000Y615950D01*
X641350Y622300D02*
X654050Y622300D01*
X660400Y615950D01*
X660400Y603250D01*
X654050Y596900D01*
X641350Y596900D01*
X635000Y603250D01*
X660400Y615950D02*
X666750Y622300D01*
X660400Y603250D02*
X666750Y596900D01*
X679450Y596900D01*
X603250Y622300D02*
X590550Y622300D01*
X603250Y622300D02*
X609600Y615950D01*
X609600Y603250D01*
X603250Y596900D01*
X609600Y615950D02*
X615950Y622300D01*
X628650Y622300D01*
X635000Y615950D01*
X635000Y603250D01*
X628650Y596900D01*
X615950Y596900D01*
X609600Y603250D01*
X584200Y603250D02*
X584200Y615950D01*
X590550Y622300D01*
X584200Y603250D02*
X590550Y596900D01*
X603250Y596900D01*
X768350Y622300D02*
X781050Y622300D01*
X787400Y615950D01*
X787400Y603250D01*
X781050Y596900D01*
X762000Y615950D02*
X768350Y622300D01*
X762000Y603250D02*
X768350Y596900D01*
X781050Y596900D01*
X603250Y139700D02*
X590550Y139700D01*
X603250Y139700D02*
X609600Y133350D01*
X609600Y120650D02*
X603250Y114300D01*
X565150Y139700D02*
X558800Y133350D01*
X565150Y139700D02*
X577850Y139700D01*
X584200Y133350D01*
X584200Y120650D01*
X577850Y114300D01*
X565150Y114300D01*
X558800Y120650D01*
X584200Y133350D02*
X590550Y139700D01*
X584200Y120650D02*
X590550Y114300D01*
X603250Y114300D01*
X527050Y139700D02*
X514350Y139700D01*
X527050Y139700D02*
X533400Y133350D01*
X533400Y120650D01*
X527050Y114300D01*
X533400Y133350D02*
X539750Y139700D01*
X552450Y139700D01*
X558800Y133350D01*
X558800Y120650D01*
X552450Y114300D01*
X539750Y114300D01*
X533400Y120650D01*
X488950Y139700D02*
X482600Y133350D01*
X488950Y139700D02*
X501650Y139700D01*
X508000Y133350D01*
X508000Y120650D01*
X501650Y114300D01*
X488950Y114300D01*
X482600Y120650D01*
X508000Y133350D02*
X514350Y139700D01*
X508000Y120650D02*
X514350Y114300D01*
X527050Y114300D01*
X457200Y120650D02*
X457200Y133350D01*
X463550Y139700D01*
X476250Y139700D01*
X482600Y133350D01*
X482600Y120650D01*
X476250Y114300D01*
X463550Y114300D01*
X457200Y120650D01*
X768350Y139700D02*
X781050Y139700D01*
X787400Y133350D01*
X787400Y120650D01*
X781050Y114300D01*
X742950Y139700D02*
X736600Y133350D01*
X742950Y139700D02*
X755650Y139700D01*
X762000Y133350D01*
X762000Y120650D01*
X755650Y114300D01*
X742950Y114300D01*
X736600Y120650D01*
X762000Y133350D02*
X768350Y139700D01*
X762000Y120650D02*
X768350Y114300D01*
X781050Y114300D01*
X704850Y139700D02*
X692150Y139700D01*
X704850Y139700D02*
X711200Y133350D01*
X711200Y120650D01*
X704850Y114300D01*
X711200Y133350D02*
X717550Y139700D01*
X730250Y139700D01*
X736600Y133350D01*
X736600Y120650D01*
X730250Y114300D01*
X717550Y114300D01*
X711200Y120650D01*
X666750Y139700D02*
X660400Y133350D01*
X666750Y139700D02*
X679450Y139700D01*
X685800Y133350D01*
X685800Y120650D01*
X679450Y114300D01*
X666750Y114300D01*
X660400Y120650D01*
X685800Y133350D02*
X692150Y139700D01*
X685800Y120650D02*
X692150Y114300D01*
X704850Y114300D01*
X635000Y120650D02*
X635000Y133350D01*
X641350Y139700D01*
X654050Y139700D01*
X660400Y133350D01*
X660400Y120650D01*
X654050Y114300D01*
X641350Y114300D01*
X635000Y120650D01*
X609600Y120650D02*
X609600Y133350D01*
X549910Y267970D02*
X550010Y267972D01*
X550109Y267978D01*
X550209Y267988D01*
X550307Y268001D01*
X550406Y268019D01*
X550503Y268040D01*
X550599Y268065D01*
X550695Y268094D01*
X550789Y268127D01*
X550882Y268163D01*
X550973Y268203D01*
X551063Y268247D01*
X551151Y268294D01*
X551237Y268344D01*
X551321Y268398D01*
X551403Y268455D01*
X551482Y268515D01*
X551560Y268579D01*
X551634Y268645D01*
X551706Y268714D01*
X551775Y268786D01*
X551841Y268860D01*
X551905Y268938D01*
X551965Y269017D01*
X552022Y269099D01*
X552076Y269183D01*
X552126Y269269D01*
X552173Y269357D01*
X552217Y269447D01*
X552257Y269538D01*
X552293Y269631D01*
X552326Y269725D01*
X552355Y269821D01*
X552380Y269917D01*
X552401Y270014D01*
X552419Y270113D01*
X552432Y270211D01*
X552442Y270311D01*
X552448Y270410D01*
X552450Y270510D01*
X552450Y288290D02*
X552448Y288390D01*
X552442Y288489D01*
X552432Y288589D01*
X552419Y288687D01*
X552401Y288786D01*
X552380Y288883D01*
X552355Y288979D01*
X552326Y289075D01*
X552293Y289169D01*
X552257Y289262D01*
X552217Y289353D01*
X552173Y289443D01*
X552126Y289531D01*
X552076Y289617D01*
X552022Y289701D01*
X551965Y289783D01*
X551905Y289862D01*
X551841Y289940D01*
X551775Y290014D01*
X551706Y290086D01*
X551634Y290155D01*
X551560Y290221D01*
X551482Y290285D01*
X551403Y290345D01*
X551321Y290402D01*
X551237Y290456D01*
X551151Y290506D01*
X551063Y290553D01*
X550973Y290597D01*
X550882Y290637D01*
X550789Y290673D01*
X550695Y290706D01*
X550599Y290735D01*
X550503Y290760D01*
X550406Y290781D01*
X550307Y290799D01*
X550209Y290812D01*
X550109Y290822D01*
X550010Y290828D01*
X549910Y290830D01*
X491490Y290830D02*
X491390Y290828D01*
X491291Y290822D01*
X491191Y290812D01*
X491093Y290799D01*
X490994Y290781D01*
X490897Y290760D01*
X490801Y290735D01*
X490705Y290706D01*
X490611Y290673D01*
X490518Y290637D01*
X490427Y290597D01*
X490337Y290553D01*
X490249Y290506D01*
X490163Y290456D01*
X490079Y290402D01*
X489997Y290345D01*
X489918Y290285D01*
X489840Y290221D01*
X489766Y290155D01*
X489694Y290086D01*
X489625Y290014D01*
X489559Y289940D01*
X489495Y289862D01*
X489435Y289783D01*
X489378Y289701D01*
X489324Y289617D01*
X489274Y289531D01*
X489227Y289443D01*
X489183Y289353D01*
X489143Y289262D01*
X489107Y289169D01*
X489074Y289075D01*
X489045Y288979D01*
X489020Y288883D01*
X488999Y288786D01*
X488981Y288687D01*
X488968Y288589D01*
X488958Y288489D01*
X488952Y288390D01*
X488950Y288290D01*
X488950Y270510D02*
X488952Y270410D01*
X488958Y270311D01*
X488968Y270211D01*
X488981Y270113D01*
X488999Y270014D01*
X489020Y269917D01*
X489045Y269821D01*
X489074Y269725D01*
X489107Y269631D01*
X489143Y269538D01*
X489183Y269447D01*
X489227Y269357D01*
X489274Y269269D01*
X489324Y269183D01*
X489378Y269099D01*
X489435Y269017D01*
X489495Y268938D01*
X489559Y268860D01*
X489625Y268786D01*
X489694Y268714D01*
X489766Y268645D01*
X489840Y268579D01*
X489918Y268515D01*
X489997Y268455D01*
X490079Y268398D01*
X490163Y268344D01*
X490249Y268294D01*
X490337Y268247D01*
X490427Y268203D01*
X490518Y268163D01*
X490611Y268127D01*
X490705Y268094D01*
X490801Y268065D01*
X490897Y268040D01*
X490994Y268019D01*
X491093Y268001D01*
X491191Y267988D01*
X491291Y267978D01*
X491390Y267972D01*
X491490Y267970D01*
X552450Y270510D02*
X552450Y288290D01*
X549910Y267970D02*
X546100Y267970D01*
X544830Y269240D01*
X546100Y290830D02*
X549910Y290830D01*
X546100Y290830D02*
X544830Y289560D01*
X496570Y269240D02*
X495300Y267970D01*
X496570Y269240D02*
X544830Y269240D01*
X496570Y289560D02*
X495300Y290830D01*
X496570Y289560D02*
X544830Y289560D01*
X495300Y267970D02*
X491490Y267970D01*
X491490Y290830D02*
X495300Y290830D01*
X488950Y288290D02*
X488950Y270510D01*
D11*
X480060Y279400D02*
X476250Y279400D01*
X561340Y279400D02*
X565150Y279400D01*
D12*
X484632Y279400D03*
X556768Y279400D03*
X471932Y279400D03*
X569468Y279400D03*
D13*
X534118Y264795D02*
X534118Y253365D01*
X534118Y264795D02*
X537293Y264795D01*
X537404Y264793D01*
X537514Y264787D01*
X537625Y264778D01*
X537735Y264764D01*
X537844Y264747D01*
X537953Y264726D01*
X538061Y264701D01*
X538168Y264672D01*
X538274Y264640D01*
X538379Y264604D01*
X538482Y264564D01*
X538584Y264521D01*
X538685Y264474D01*
X538784Y264423D01*
X538881Y264370D01*
X538975Y264313D01*
X539068Y264252D01*
X539159Y264189D01*
X539248Y264122D01*
X539334Y264052D01*
X539417Y263979D01*
X539499Y263904D01*
X539577Y263826D01*
X539652Y263744D01*
X539725Y263661D01*
X539795Y263575D01*
X539862Y263486D01*
X539925Y263395D01*
X539986Y263302D01*
X540043Y263207D01*
X540096Y263111D01*
X540147Y263012D01*
X540194Y262911D01*
X540237Y262809D01*
X540277Y262706D01*
X540313Y262601D01*
X540345Y262495D01*
X540374Y262388D01*
X540399Y262280D01*
X540420Y262171D01*
X540437Y262062D01*
X540451Y261952D01*
X540460Y261841D01*
X540466Y261731D01*
X540468Y261620D01*
X540466Y261509D01*
X540460Y261399D01*
X540451Y261288D01*
X540437Y261178D01*
X540420Y261069D01*
X540399Y260960D01*
X540374Y260852D01*
X540345Y260745D01*
X540313Y260639D01*
X540277Y260534D01*
X540237Y260431D01*
X540194Y260329D01*
X540147Y260228D01*
X540096Y260129D01*
X540043Y260032D01*
X539986Y259938D01*
X539925Y259845D01*
X539862Y259754D01*
X539795Y259665D01*
X539725Y259579D01*
X539652Y259496D01*
X539577Y259414D01*
X539499Y259336D01*
X539417Y259261D01*
X539334Y259188D01*
X539248Y259118D01*
X539159Y259051D01*
X539068Y258988D01*
X538975Y258927D01*
X538881Y258870D01*
X538784Y258817D01*
X538685Y258766D01*
X538584Y258719D01*
X538482Y258676D01*
X538379Y258636D01*
X538274Y258600D01*
X538168Y258568D01*
X538061Y258539D01*
X537953Y258514D01*
X537844Y258493D01*
X537735Y258476D01*
X537625Y258462D01*
X537514Y258453D01*
X537404Y258447D01*
X537293Y258445D01*
X534118Y258445D01*
X537928Y258445D02*
X540468Y253365D01*
X545465Y262255D02*
X548640Y264795D01*
X548640Y253365D01*
X545465Y253365D02*
X551815Y253365D01*
D10*
X549910Y318770D02*
X550010Y318772D01*
X550109Y318778D01*
X550209Y318788D01*
X550307Y318801D01*
X550406Y318819D01*
X550503Y318840D01*
X550599Y318865D01*
X550695Y318894D01*
X550789Y318927D01*
X550882Y318963D01*
X550973Y319003D01*
X551063Y319047D01*
X551151Y319094D01*
X551237Y319144D01*
X551321Y319198D01*
X551403Y319255D01*
X551482Y319315D01*
X551560Y319379D01*
X551634Y319445D01*
X551706Y319514D01*
X551775Y319586D01*
X551841Y319660D01*
X551905Y319738D01*
X551965Y319817D01*
X552022Y319899D01*
X552076Y319983D01*
X552126Y320069D01*
X552173Y320157D01*
X552217Y320247D01*
X552257Y320338D01*
X552293Y320431D01*
X552326Y320525D01*
X552355Y320621D01*
X552380Y320717D01*
X552401Y320814D01*
X552419Y320913D01*
X552432Y321011D01*
X552442Y321111D01*
X552448Y321210D01*
X552450Y321310D01*
X552450Y339090D02*
X552448Y339190D01*
X552442Y339289D01*
X552432Y339389D01*
X552419Y339487D01*
X552401Y339586D01*
X552380Y339683D01*
X552355Y339779D01*
X552326Y339875D01*
X552293Y339969D01*
X552257Y340062D01*
X552217Y340153D01*
X552173Y340243D01*
X552126Y340331D01*
X552076Y340417D01*
X552022Y340501D01*
X551965Y340583D01*
X551905Y340662D01*
X551841Y340740D01*
X551775Y340814D01*
X551706Y340886D01*
X551634Y340955D01*
X551560Y341021D01*
X551482Y341085D01*
X551403Y341145D01*
X551321Y341202D01*
X551237Y341256D01*
X551151Y341306D01*
X551063Y341353D01*
X550973Y341397D01*
X550882Y341437D01*
X550789Y341473D01*
X550695Y341506D01*
X550599Y341535D01*
X550503Y341560D01*
X550406Y341581D01*
X550307Y341599D01*
X550209Y341612D01*
X550109Y341622D01*
X550010Y341628D01*
X549910Y341630D01*
X491490Y341630D02*
X491390Y341628D01*
X491291Y341622D01*
X491191Y341612D01*
X491093Y341599D01*
X490994Y341581D01*
X490897Y341560D01*
X490801Y341535D01*
X490705Y341506D01*
X490611Y341473D01*
X490518Y341437D01*
X490427Y341397D01*
X490337Y341353D01*
X490249Y341306D01*
X490163Y341256D01*
X490079Y341202D01*
X489997Y341145D01*
X489918Y341085D01*
X489840Y341021D01*
X489766Y340955D01*
X489694Y340886D01*
X489625Y340814D01*
X489559Y340740D01*
X489495Y340662D01*
X489435Y340583D01*
X489378Y340501D01*
X489324Y340417D01*
X489274Y340331D01*
X489227Y340243D01*
X489183Y340153D01*
X489143Y340062D01*
X489107Y339969D01*
X489074Y339875D01*
X489045Y339779D01*
X489020Y339683D01*
X488999Y339586D01*
X488981Y339487D01*
X488968Y339389D01*
X488958Y339289D01*
X488952Y339190D01*
X488950Y339090D01*
X488950Y321310D02*
X488952Y321210D01*
X488958Y321111D01*
X488968Y321011D01*
X488981Y320913D01*
X488999Y320814D01*
X489020Y320717D01*
X489045Y320621D01*
X489074Y320525D01*
X489107Y320431D01*
X489143Y320338D01*
X489183Y320247D01*
X489227Y320157D01*
X489274Y320069D01*
X489324Y319983D01*
X489378Y319899D01*
X489435Y319817D01*
X489495Y319738D01*
X489559Y319660D01*
X489625Y319586D01*
X489694Y319514D01*
X489766Y319445D01*
X489840Y319379D01*
X489918Y319315D01*
X489997Y319255D01*
X490079Y319198D01*
X490163Y319144D01*
X490249Y319094D01*
X490337Y319047D01*
X490427Y319003D01*
X490518Y318963D01*
X490611Y318927D01*
X490705Y318894D01*
X490801Y318865D01*
X490897Y318840D01*
X490994Y318819D01*
X491093Y318801D01*
X491191Y318788D01*
X491291Y318778D01*
X491390Y318772D01*
X491490Y318770D01*
X552450Y321310D02*
X552450Y339090D01*
X549910Y318770D02*
X546100Y318770D01*
X544830Y320040D01*
X546100Y341630D02*
X549910Y341630D01*
X546100Y341630D02*
X544830Y340360D01*
X496570Y320040D02*
X495300Y318770D01*
X496570Y320040D02*
X544830Y320040D01*
X496570Y340360D02*
X495300Y341630D01*
X496570Y340360D02*
X544830Y340360D01*
X495300Y318770D02*
X491490Y318770D01*
X491490Y341630D02*
X495300Y341630D01*
X488950Y339090D02*
X488950Y321310D01*
D11*
X480060Y330200D02*
X476250Y330200D01*
X561340Y330200D02*
X565150Y330200D01*
D12*
X484632Y330200D03*
X556768Y330200D03*
X471932Y330200D03*
X569468Y330200D03*
D13*
X522688Y315595D02*
X522688Y304165D01*
X522688Y315595D02*
X525863Y315595D01*
X525974Y315593D01*
X526084Y315587D01*
X526195Y315578D01*
X526305Y315564D01*
X526414Y315547D01*
X526523Y315526D01*
X526631Y315501D01*
X526738Y315472D01*
X526844Y315440D01*
X526949Y315404D01*
X527052Y315364D01*
X527154Y315321D01*
X527255Y315274D01*
X527354Y315223D01*
X527451Y315170D01*
X527545Y315113D01*
X527638Y315052D01*
X527729Y314989D01*
X527818Y314922D01*
X527904Y314852D01*
X527987Y314779D01*
X528069Y314704D01*
X528147Y314626D01*
X528222Y314544D01*
X528295Y314461D01*
X528365Y314375D01*
X528432Y314286D01*
X528495Y314195D01*
X528556Y314102D01*
X528613Y314007D01*
X528666Y313911D01*
X528717Y313812D01*
X528764Y313711D01*
X528807Y313609D01*
X528847Y313506D01*
X528883Y313401D01*
X528915Y313295D01*
X528944Y313188D01*
X528969Y313080D01*
X528990Y312971D01*
X529007Y312862D01*
X529021Y312752D01*
X529030Y312641D01*
X529036Y312531D01*
X529038Y312420D01*
X529036Y312309D01*
X529030Y312199D01*
X529021Y312088D01*
X529007Y311978D01*
X528990Y311869D01*
X528969Y311760D01*
X528944Y311652D01*
X528915Y311545D01*
X528883Y311439D01*
X528847Y311334D01*
X528807Y311231D01*
X528764Y311129D01*
X528717Y311028D01*
X528666Y310929D01*
X528613Y310832D01*
X528556Y310738D01*
X528495Y310645D01*
X528432Y310554D01*
X528365Y310465D01*
X528295Y310379D01*
X528222Y310296D01*
X528147Y310214D01*
X528069Y310136D01*
X527987Y310061D01*
X527904Y309988D01*
X527818Y309918D01*
X527729Y309851D01*
X527638Y309788D01*
X527545Y309727D01*
X527451Y309670D01*
X527354Y309617D01*
X527255Y309566D01*
X527154Y309519D01*
X527052Y309476D01*
X526949Y309436D01*
X526844Y309400D01*
X526738Y309368D01*
X526631Y309339D01*
X526523Y309314D01*
X526414Y309293D01*
X526305Y309276D01*
X526195Y309262D01*
X526084Y309253D01*
X525974Y309247D01*
X525863Y309245D01*
X522688Y309245D01*
X526498Y309245D02*
X529038Y304165D01*
X534035Y313055D02*
X537210Y315595D01*
X537210Y304165D01*
X534035Y304165D02*
X540385Y304165D01*
X545465Y309880D02*
X545468Y310105D01*
X545476Y310330D01*
X545489Y310554D01*
X545508Y310778D01*
X545532Y311002D01*
X545561Y311225D01*
X545596Y311447D01*
X545636Y311668D01*
X545682Y311888D01*
X545732Y312107D01*
X545788Y312325D01*
X545849Y312542D01*
X545915Y312757D01*
X545986Y312970D01*
X546063Y313181D01*
X546144Y313391D01*
X546230Y313599D01*
X546321Y313804D01*
X546417Y314007D01*
X546417Y314008D02*
X546449Y314096D01*
X546485Y314183D01*
X546524Y314269D01*
X546567Y314353D01*
X546613Y314435D01*
X546662Y314515D01*
X546714Y314593D01*
X546770Y314669D01*
X546828Y314743D01*
X546890Y314814D01*
X546954Y314883D01*
X547021Y314949D01*
X547090Y315012D01*
X547162Y315073D01*
X547236Y315131D01*
X547313Y315185D01*
X547391Y315237D01*
X547472Y315285D01*
X547554Y315330D01*
X547639Y315372D01*
X547725Y315410D01*
X547812Y315445D01*
X547900Y315477D01*
X547990Y315504D01*
X548081Y315529D01*
X548173Y315549D01*
X548265Y315566D01*
X548359Y315579D01*
X548452Y315588D01*
X548546Y315594D01*
X548640Y315596D01*
X548734Y315594D01*
X548828Y315588D01*
X548921Y315579D01*
X549015Y315566D01*
X549107Y315549D01*
X549199Y315529D01*
X549290Y315504D01*
X549380Y315477D01*
X549468Y315445D01*
X549555Y315410D01*
X549641Y315372D01*
X549726Y315330D01*
X549808Y315285D01*
X549889Y315237D01*
X549967Y315185D01*
X550044Y315131D01*
X550118Y315073D01*
X550190Y315012D01*
X550259Y314949D01*
X550326Y314883D01*
X550390Y314814D01*
X550452Y314743D01*
X550510Y314669D01*
X550566Y314593D01*
X550618Y314515D01*
X550667Y314435D01*
X550713Y314353D01*
X550756Y314269D01*
X550795Y314183D01*
X550831Y314096D01*
X550863Y314008D01*
X550863Y314007D02*
X550959Y313804D01*
X551050Y313599D01*
X551136Y313391D01*
X551217Y313181D01*
X551294Y312970D01*
X551365Y312757D01*
X551431Y312542D01*
X551492Y312325D01*
X551548Y312107D01*
X551598Y311888D01*
X551644Y311668D01*
X551684Y311447D01*
X551719Y311225D01*
X551748Y311002D01*
X551772Y310778D01*
X551791Y310554D01*
X551804Y310330D01*
X551812Y310105D01*
X551815Y309880D01*
X545465Y309880D02*
X545468Y309655D01*
X545476Y309430D01*
X545489Y309206D01*
X545508Y308982D01*
X545532Y308758D01*
X545561Y308535D01*
X545596Y308313D01*
X545636Y308092D01*
X545682Y307872D01*
X545732Y307653D01*
X545788Y307435D01*
X545849Y307218D01*
X545915Y307003D01*
X545986Y306790D01*
X546063Y306579D01*
X546144Y306369D01*
X546230Y306161D01*
X546321Y305956D01*
X546417Y305753D01*
X546449Y305665D01*
X546485Y305578D01*
X546524Y305492D01*
X546567Y305408D01*
X546613Y305326D01*
X546662Y305246D01*
X546714Y305168D01*
X546770Y305092D01*
X546828Y305018D01*
X546890Y304947D01*
X546954Y304878D01*
X547021Y304812D01*
X547090Y304749D01*
X547162Y304688D01*
X547236Y304630D01*
X547313Y304576D01*
X547391Y304524D01*
X547472Y304476D01*
X547554Y304431D01*
X547639Y304389D01*
X547725Y304351D01*
X547812Y304316D01*
X547900Y304284D01*
X547990Y304257D01*
X548081Y304232D01*
X548173Y304212D01*
X548265Y304195D01*
X548359Y304182D01*
X548452Y304173D01*
X548546Y304167D01*
X548640Y304165D01*
X550863Y305753D02*
X550959Y305956D01*
X551050Y306161D01*
X551136Y306369D01*
X551217Y306579D01*
X551294Y306790D01*
X551365Y307003D01*
X551431Y307218D01*
X551492Y307435D01*
X551548Y307653D01*
X551598Y307872D01*
X551644Y308092D01*
X551684Y308313D01*
X551719Y308535D01*
X551748Y308758D01*
X551772Y308982D01*
X551791Y309206D01*
X551804Y309430D01*
X551812Y309655D01*
X551815Y309880D01*
X550863Y305753D02*
X550831Y305665D01*
X550795Y305578D01*
X550756Y305492D01*
X550713Y305408D01*
X550667Y305326D01*
X550618Y305246D01*
X550566Y305168D01*
X550510Y305092D01*
X550452Y305018D01*
X550390Y304947D01*
X550326Y304878D01*
X550259Y304812D01*
X550190Y304749D01*
X550118Y304688D01*
X550044Y304630D01*
X549967Y304576D01*
X549889Y304524D01*
X549808Y304476D01*
X549726Y304431D01*
X549641Y304389D01*
X549555Y304351D01*
X549468Y304316D01*
X549380Y304284D01*
X549290Y304257D01*
X549199Y304232D01*
X549107Y304212D01*
X549015Y304195D01*
X548921Y304182D01*
X548828Y304173D01*
X548734Y304167D01*
X548640Y304165D01*
X546100Y306705D02*
X551180Y313055D01*
D10*
X552450Y219710D02*
X552448Y219610D01*
X552442Y219511D01*
X552432Y219411D01*
X552419Y219313D01*
X552401Y219214D01*
X552380Y219117D01*
X552355Y219021D01*
X552326Y218925D01*
X552293Y218831D01*
X552257Y218738D01*
X552217Y218647D01*
X552173Y218557D01*
X552126Y218469D01*
X552076Y218383D01*
X552022Y218299D01*
X551965Y218217D01*
X551905Y218138D01*
X551841Y218060D01*
X551775Y217986D01*
X551706Y217914D01*
X551634Y217845D01*
X551560Y217779D01*
X551482Y217715D01*
X551403Y217655D01*
X551321Y217598D01*
X551237Y217544D01*
X551151Y217494D01*
X551063Y217447D01*
X550973Y217403D01*
X550882Y217363D01*
X550789Y217327D01*
X550695Y217294D01*
X550599Y217265D01*
X550503Y217240D01*
X550406Y217219D01*
X550307Y217201D01*
X550209Y217188D01*
X550109Y217178D01*
X550010Y217172D01*
X549910Y217170D01*
X552450Y237490D02*
X552448Y237590D01*
X552442Y237689D01*
X552432Y237789D01*
X552419Y237887D01*
X552401Y237986D01*
X552380Y238083D01*
X552355Y238179D01*
X552326Y238275D01*
X552293Y238369D01*
X552257Y238462D01*
X552217Y238553D01*
X552173Y238643D01*
X552126Y238731D01*
X552076Y238817D01*
X552022Y238901D01*
X551965Y238983D01*
X551905Y239062D01*
X551841Y239140D01*
X551775Y239214D01*
X551706Y239286D01*
X551634Y239355D01*
X551560Y239421D01*
X551482Y239485D01*
X551403Y239545D01*
X551321Y239602D01*
X551237Y239656D01*
X551151Y239706D01*
X551063Y239753D01*
X550973Y239797D01*
X550882Y239837D01*
X550789Y239873D01*
X550695Y239906D01*
X550599Y239935D01*
X550503Y239960D01*
X550406Y239981D01*
X550307Y239999D01*
X550209Y240012D01*
X550109Y240022D01*
X550010Y240028D01*
X549910Y240030D01*
X491490Y240030D02*
X491390Y240028D01*
X491291Y240022D01*
X491191Y240012D01*
X491093Y239999D01*
X490994Y239981D01*
X490897Y239960D01*
X490801Y239935D01*
X490705Y239906D01*
X490611Y239873D01*
X490518Y239837D01*
X490427Y239797D01*
X490337Y239753D01*
X490249Y239706D01*
X490163Y239656D01*
X490079Y239602D01*
X489997Y239545D01*
X489918Y239485D01*
X489840Y239421D01*
X489766Y239355D01*
X489694Y239286D01*
X489625Y239214D01*
X489559Y239140D01*
X489495Y239062D01*
X489435Y238983D01*
X489378Y238901D01*
X489324Y238817D01*
X489274Y238731D01*
X489227Y238643D01*
X489183Y238553D01*
X489143Y238462D01*
X489107Y238369D01*
X489074Y238275D01*
X489045Y238179D01*
X489020Y238083D01*
X488999Y237986D01*
X488981Y237887D01*
X488968Y237789D01*
X488958Y237689D01*
X488952Y237590D01*
X488950Y237490D01*
X488950Y219710D02*
X488952Y219610D01*
X488958Y219511D01*
X488968Y219411D01*
X488981Y219313D01*
X488999Y219214D01*
X489020Y219117D01*
X489045Y219021D01*
X489074Y218925D01*
X489107Y218831D01*
X489143Y218738D01*
X489183Y218647D01*
X489227Y218557D01*
X489274Y218469D01*
X489324Y218383D01*
X489378Y218299D01*
X489435Y218217D01*
X489495Y218138D01*
X489559Y218060D01*
X489625Y217986D01*
X489694Y217914D01*
X489766Y217845D01*
X489840Y217779D01*
X489918Y217715D01*
X489997Y217655D01*
X490079Y217598D01*
X490163Y217544D01*
X490249Y217494D01*
X490337Y217447D01*
X490427Y217403D01*
X490518Y217363D01*
X490611Y217327D01*
X490705Y217294D01*
X490801Y217265D01*
X490897Y217240D01*
X490994Y217219D01*
X491093Y217201D01*
X491191Y217188D01*
X491291Y217178D01*
X491390Y217172D01*
X491490Y217170D01*
X552450Y219710D02*
X552450Y237490D01*
X549910Y217170D02*
X546100Y217170D01*
X544830Y218440D01*
X546100Y240030D02*
X549910Y240030D01*
X546100Y240030D02*
X544830Y238760D01*
X496570Y218440D02*
X495300Y217170D01*
X496570Y218440D02*
X544830Y218440D01*
X496570Y238760D02*
X495300Y240030D01*
X496570Y238760D02*
X544830Y238760D01*
X495300Y217170D02*
X491490Y217170D01*
X491490Y240030D02*
X495300Y240030D01*
X488950Y237490D02*
X488950Y219710D01*
D11*
X480060Y228600D02*
X476250Y228600D01*
X561340Y228600D02*
X565150Y228600D01*
D12*
X484632Y228600D03*
X556768Y228600D03*
X471932Y228600D03*
X569468Y228600D03*
D13*
X522688Y213995D02*
X522688Y202565D01*
X522688Y213995D02*
X525863Y213995D01*
X525974Y213993D01*
X526084Y213987D01*
X526195Y213978D01*
X526305Y213964D01*
X526414Y213947D01*
X526523Y213926D01*
X526631Y213901D01*
X526738Y213872D01*
X526844Y213840D01*
X526949Y213804D01*
X527052Y213764D01*
X527154Y213721D01*
X527255Y213674D01*
X527354Y213623D01*
X527451Y213570D01*
X527545Y213513D01*
X527638Y213452D01*
X527729Y213389D01*
X527818Y213322D01*
X527904Y213252D01*
X527987Y213179D01*
X528069Y213104D01*
X528147Y213026D01*
X528222Y212944D01*
X528295Y212861D01*
X528365Y212775D01*
X528432Y212686D01*
X528495Y212595D01*
X528556Y212502D01*
X528613Y212407D01*
X528666Y212311D01*
X528717Y212212D01*
X528764Y212111D01*
X528807Y212009D01*
X528847Y211906D01*
X528883Y211801D01*
X528915Y211695D01*
X528944Y211588D01*
X528969Y211480D01*
X528990Y211371D01*
X529007Y211262D01*
X529021Y211152D01*
X529030Y211041D01*
X529036Y210931D01*
X529038Y210820D01*
X529036Y210709D01*
X529030Y210599D01*
X529021Y210488D01*
X529007Y210378D01*
X528990Y210269D01*
X528969Y210160D01*
X528944Y210052D01*
X528915Y209945D01*
X528883Y209839D01*
X528847Y209734D01*
X528807Y209631D01*
X528764Y209529D01*
X528717Y209428D01*
X528666Y209329D01*
X528613Y209232D01*
X528556Y209138D01*
X528495Y209045D01*
X528432Y208954D01*
X528365Y208865D01*
X528295Y208779D01*
X528222Y208696D01*
X528147Y208614D01*
X528069Y208536D01*
X527987Y208461D01*
X527904Y208388D01*
X527818Y208318D01*
X527729Y208251D01*
X527638Y208188D01*
X527545Y208127D01*
X527451Y208070D01*
X527354Y208017D01*
X527255Y207966D01*
X527154Y207919D01*
X527052Y207876D01*
X526949Y207836D01*
X526844Y207800D01*
X526738Y207768D01*
X526631Y207739D01*
X526523Y207714D01*
X526414Y207693D01*
X526305Y207676D01*
X526195Y207662D01*
X526084Y207653D01*
X525974Y207647D01*
X525863Y207645D01*
X522688Y207645D01*
X526498Y207645D02*
X529038Y202565D01*
X534035Y211455D02*
X537210Y213995D01*
X537210Y202565D01*
X534035Y202565D02*
X540385Y202565D01*
X545465Y211455D02*
X548640Y213995D01*
X548640Y202565D01*
X545465Y202565D02*
X551815Y202565D01*
D10*
X613410Y242570D02*
X613510Y242572D01*
X613609Y242578D01*
X613709Y242588D01*
X613807Y242601D01*
X613906Y242619D01*
X614003Y242640D01*
X614099Y242665D01*
X614195Y242694D01*
X614289Y242727D01*
X614382Y242763D01*
X614473Y242803D01*
X614563Y242847D01*
X614651Y242894D01*
X614737Y242944D01*
X614821Y242998D01*
X614903Y243055D01*
X614982Y243115D01*
X615060Y243179D01*
X615134Y243245D01*
X615206Y243314D01*
X615275Y243386D01*
X615341Y243460D01*
X615405Y243538D01*
X615465Y243617D01*
X615522Y243699D01*
X615576Y243783D01*
X615626Y243869D01*
X615673Y243957D01*
X615717Y244047D01*
X615757Y244138D01*
X615793Y244231D01*
X615826Y244325D01*
X615855Y244421D01*
X615880Y244517D01*
X615901Y244614D01*
X615919Y244713D01*
X615932Y244811D01*
X615942Y244911D01*
X615948Y245010D01*
X615950Y245110D01*
X615950Y262890D02*
X615948Y262990D01*
X615942Y263089D01*
X615932Y263189D01*
X615919Y263287D01*
X615901Y263386D01*
X615880Y263483D01*
X615855Y263579D01*
X615826Y263675D01*
X615793Y263769D01*
X615757Y263862D01*
X615717Y263953D01*
X615673Y264043D01*
X615626Y264131D01*
X615576Y264217D01*
X615522Y264301D01*
X615465Y264383D01*
X615405Y264462D01*
X615341Y264540D01*
X615275Y264614D01*
X615206Y264686D01*
X615134Y264755D01*
X615060Y264821D01*
X614982Y264885D01*
X614903Y264945D01*
X614821Y265002D01*
X614737Y265056D01*
X614651Y265106D01*
X614563Y265153D01*
X614473Y265197D01*
X614382Y265237D01*
X614289Y265273D01*
X614195Y265306D01*
X614099Y265335D01*
X614003Y265360D01*
X613906Y265381D01*
X613807Y265399D01*
X613709Y265412D01*
X613609Y265422D01*
X613510Y265428D01*
X613410Y265430D01*
X554990Y265430D02*
X554890Y265428D01*
X554791Y265422D01*
X554691Y265412D01*
X554593Y265399D01*
X554494Y265381D01*
X554397Y265360D01*
X554301Y265335D01*
X554205Y265306D01*
X554111Y265273D01*
X554018Y265237D01*
X553927Y265197D01*
X553837Y265153D01*
X553749Y265106D01*
X553663Y265056D01*
X553579Y265002D01*
X553497Y264945D01*
X553418Y264885D01*
X553340Y264821D01*
X553266Y264755D01*
X553194Y264686D01*
X553125Y264614D01*
X553059Y264540D01*
X552995Y264462D01*
X552935Y264383D01*
X552878Y264301D01*
X552824Y264217D01*
X552774Y264131D01*
X552727Y264043D01*
X552683Y263953D01*
X552643Y263862D01*
X552607Y263769D01*
X552574Y263675D01*
X552545Y263579D01*
X552520Y263483D01*
X552499Y263386D01*
X552481Y263287D01*
X552468Y263189D01*
X552458Y263089D01*
X552452Y262990D01*
X552450Y262890D01*
X552450Y245110D02*
X552452Y245010D01*
X552458Y244911D01*
X552468Y244811D01*
X552481Y244713D01*
X552499Y244614D01*
X552520Y244517D01*
X552545Y244421D01*
X552574Y244325D01*
X552607Y244231D01*
X552643Y244138D01*
X552683Y244047D01*
X552727Y243957D01*
X552774Y243869D01*
X552824Y243783D01*
X552878Y243699D01*
X552935Y243617D01*
X552995Y243538D01*
X553059Y243460D01*
X553125Y243386D01*
X553194Y243314D01*
X553266Y243245D01*
X553340Y243179D01*
X553418Y243115D01*
X553497Y243055D01*
X553579Y242998D01*
X553663Y242944D01*
X553749Y242894D01*
X553837Y242847D01*
X553927Y242803D01*
X554018Y242763D01*
X554111Y242727D01*
X554205Y242694D01*
X554301Y242665D01*
X554397Y242640D01*
X554494Y242619D01*
X554593Y242601D01*
X554691Y242588D01*
X554791Y242578D01*
X554890Y242572D01*
X554990Y242570D01*
X615950Y245110D02*
X615950Y262890D01*
X613410Y242570D02*
X609600Y242570D01*
X608330Y243840D01*
X609600Y265430D02*
X613410Y265430D01*
X609600Y265430D02*
X608330Y264160D01*
X560070Y243840D02*
X558800Y242570D01*
X560070Y243840D02*
X608330Y243840D01*
X560070Y264160D02*
X558800Y265430D01*
X560070Y264160D02*
X608330Y264160D01*
X558800Y242570D02*
X554990Y242570D01*
X554990Y265430D02*
X558800Y265430D01*
X552450Y262890D02*
X552450Y245110D01*
D11*
X543560Y254000D02*
X539750Y254000D01*
X624840Y254000D02*
X628650Y254000D01*
D12*
X548132Y254000D03*
X620268Y254000D03*
X535432Y254000D03*
X632968Y254000D03*
D13*
X586188Y239395D02*
X586188Y227965D01*
X586188Y239395D02*
X589363Y239395D01*
X589474Y239393D01*
X589584Y239387D01*
X589695Y239378D01*
X589805Y239364D01*
X589914Y239347D01*
X590023Y239326D01*
X590131Y239301D01*
X590238Y239272D01*
X590344Y239240D01*
X590449Y239204D01*
X590552Y239164D01*
X590654Y239121D01*
X590755Y239074D01*
X590854Y239023D01*
X590951Y238970D01*
X591045Y238913D01*
X591138Y238852D01*
X591229Y238789D01*
X591318Y238722D01*
X591404Y238652D01*
X591487Y238579D01*
X591569Y238504D01*
X591647Y238426D01*
X591722Y238344D01*
X591795Y238261D01*
X591865Y238175D01*
X591932Y238086D01*
X591995Y237995D01*
X592056Y237902D01*
X592113Y237807D01*
X592166Y237711D01*
X592217Y237612D01*
X592264Y237511D01*
X592307Y237409D01*
X592347Y237306D01*
X592383Y237201D01*
X592415Y237095D01*
X592444Y236988D01*
X592469Y236880D01*
X592490Y236771D01*
X592507Y236662D01*
X592521Y236552D01*
X592530Y236441D01*
X592536Y236331D01*
X592538Y236220D01*
X592536Y236109D01*
X592530Y235999D01*
X592521Y235888D01*
X592507Y235778D01*
X592490Y235669D01*
X592469Y235560D01*
X592444Y235452D01*
X592415Y235345D01*
X592383Y235239D01*
X592347Y235134D01*
X592307Y235031D01*
X592264Y234929D01*
X592217Y234828D01*
X592166Y234729D01*
X592113Y234632D01*
X592056Y234538D01*
X591995Y234445D01*
X591932Y234354D01*
X591865Y234265D01*
X591795Y234179D01*
X591722Y234096D01*
X591647Y234014D01*
X591569Y233936D01*
X591487Y233861D01*
X591404Y233788D01*
X591318Y233718D01*
X591229Y233651D01*
X591138Y233588D01*
X591045Y233527D01*
X590951Y233470D01*
X590854Y233417D01*
X590755Y233366D01*
X590654Y233319D01*
X590552Y233276D01*
X590449Y233236D01*
X590344Y233200D01*
X590238Y233168D01*
X590131Y233139D01*
X590023Y233114D01*
X589914Y233093D01*
X589805Y233076D01*
X589695Y233062D01*
X589584Y233053D01*
X589474Y233047D01*
X589363Y233045D01*
X586188Y233045D01*
X589998Y233045D02*
X592538Y227965D01*
X597535Y236855D02*
X600710Y239395D01*
X600710Y227965D01*
X597535Y227965D02*
X603885Y227965D01*
X615316Y236538D02*
X615314Y236642D01*
X615308Y236747D01*
X615299Y236851D01*
X615286Y236954D01*
X615268Y237057D01*
X615248Y237159D01*
X615223Y237261D01*
X615195Y237361D01*
X615163Y237461D01*
X615127Y237559D01*
X615088Y237656D01*
X615046Y237751D01*
X615000Y237845D01*
X614950Y237937D01*
X614898Y238027D01*
X614842Y238115D01*
X614782Y238201D01*
X614720Y238285D01*
X614655Y238366D01*
X614587Y238445D01*
X614515Y238522D01*
X614442Y238595D01*
X614365Y238667D01*
X614286Y238735D01*
X614205Y238800D01*
X614121Y238862D01*
X614035Y238922D01*
X613947Y238978D01*
X613857Y239030D01*
X613765Y239080D01*
X613671Y239126D01*
X613576Y239168D01*
X613479Y239207D01*
X613381Y239243D01*
X613281Y239275D01*
X613181Y239303D01*
X613079Y239328D01*
X612977Y239348D01*
X612874Y239366D01*
X612771Y239379D01*
X612667Y239388D01*
X612562Y239394D01*
X612458Y239396D01*
X612458Y239395D02*
X612340Y239393D01*
X612221Y239387D01*
X612103Y239378D01*
X611986Y239365D01*
X611869Y239347D01*
X611752Y239327D01*
X611636Y239302D01*
X611521Y239274D01*
X611408Y239241D01*
X611295Y239206D01*
X611183Y239166D01*
X611073Y239124D01*
X610964Y239077D01*
X610856Y239027D01*
X610751Y238974D01*
X610647Y238917D01*
X610545Y238857D01*
X610445Y238794D01*
X610347Y238727D01*
X610251Y238658D01*
X610158Y238585D01*
X610067Y238509D01*
X609978Y238431D01*
X609892Y238349D01*
X609809Y238265D01*
X609728Y238179D01*
X609651Y238089D01*
X609576Y237998D01*
X609504Y237904D01*
X609435Y237807D01*
X609370Y237709D01*
X609307Y237608D01*
X609248Y237505D01*
X609192Y237401D01*
X609140Y237295D01*
X609091Y237187D01*
X609046Y237078D01*
X609004Y236967D01*
X608966Y236855D01*
X614363Y234316D02*
X614439Y234391D01*
X614514Y234470D01*
X614585Y234551D01*
X614654Y234635D01*
X614719Y234721D01*
X614781Y234809D01*
X614841Y234899D01*
X614897Y234991D01*
X614950Y235086D01*
X614999Y235182D01*
X615045Y235280D01*
X615088Y235379D01*
X615127Y235480D01*
X615162Y235582D01*
X615194Y235685D01*
X615222Y235789D01*
X615247Y235894D01*
X615268Y236001D01*
X615285Y236107D01*
X615298Y236214D01*
X615307Y236322D01*
X615313Y236430D01*
X615315Y236538D01*
X614363Y234315D02*
X608965Y227965D01*
X615315Y227965D01*
D10*
X613410Y369570D02*
X613510Y369572D01*
X613609Y369578D01*
X613709Y369588D01*
X613807Y369601D01*
X613906Y369619D01*
X614003Y369640D01*
X614099Y369665D01*
X614195Y369694D01*
X614289Y369727D01*
X614382Y369763D01*
X614473Y369803D01*
X614563Y369847D01*
X614651Y369894D01*
X614737Y369944D01*
X614821Y369998D01*
X614903Y370055D01*
X614982Y370115D01*
X615060Y370179D01*
X615134Y370245D01*
X615206Y370314D01*
X615275Y370386D01*
X615341Y370460D01*
X615405Y370538D01*
X615465Y370617D01*
X615522Y370699D01*
X615576Y370783D01*
X615626Y370869D01*
X615673Y370957D01*
X615717Y371047D01*
X615757Y371138D01*
X615793Y371231D01*
X615826Y371325D01*
X615855Y371421D01*
X615880Y371517D01*
X615901Y371614D01*
X615919Y371713D01*
X615932Y371811D01*
X615942Y371911D01*
X615948Y372010D01*
X615950Y372110D01*
X615950Y389890D02*
X615948Y389990D01*
X615942Y390089D01*
X615932Y390189D01*
X615919Y390287D01*
X615901Y390386D01*
X615880Y390483D01*
X615855Y390579D01*
X615826Y390675D01*
X615793Y390769D01*
X615757Y390862D01*
X615717Y390953D01*
X615673Y391043D01*
X615626Y391131D01*
X615576Y391217D01*
X615522Y391301D01*
X615465Y391383D01*
X615405Y391462D01*
X615341Y391540D01*
X615275Y391614D01*
X615206Y391686D01*
X615134Y391755D01*
X615060Y391821D01*
X614982Y391885D01*
X614903Y391945D01*
X614821Y392002D01*
X614737Y392056D01*
X614651Y392106D01*
X614563Y392153D01*
X614473Y392197D01*
X614382Y392237D01*
X614289Y392273D01*
X614195Y392306D01*
X614099Y392335D01*
X614003Y392360D01*
X613906Y392381D01*
X613807Y392399D01*
X613709Y392412D01*
X613609Y392422D01*
X613510Y392428D01*
X613410Y392430D01*
X554990Y392430D02*
X554890Y392428D01*
X554791Y392422D01*
X554691Y392412D01*
X554593Y392399D01*
X554494Y392381D01*
X554397Y392360D01*
X554301Y392335D01*
X554205Y392306D01*
X554111Y392273D01*
X554018Y392237D01*
X553927Y392197D01*
X553837Y392153D01*
X553749Y392106D01*
X553663Y392056D01*
X553579Y392002D01*
X553497Y391945D01*
X553418Y391885D01*
X553340Y391821D01*
X553266Y391755D01*
X553194Y391686D01*
X553125Y391614D01*
X553059Y391540D01*
X552995Y391462D01*
X552935Y391383D01*
X552878Y391301D01*
X552824Y391217D01*
X552774Y391131D01*
X552727Y391043D01*
X552683Y390953D01*
X552643Y390862D01*
X552607Y390769D01*
X552574Y390675D01*
X552545Y390579D01*
X552520Y390483D01*
X552499Y390386D01*
X552481Y390287D01*
X552468Y390189D01*
X552458Y390089D01*
X552452Y389990D01*
X552450Y389890D01*
X552450Y372110D02*
X552452Y372010D01*
X552458Y371911D01*
X552468Y371811D01*
X552481Y371713D01*
X552499Y371614D01*
X552520Y371517D01*
X552545Y371421D01*
X552574Y371325D01*
X552607Y371231D01*
X552643Y371138D01*
X552683Y371047D01*
X552727Y370957D01*
X552774Y370869D01*
X552824Y370783D01*
X552878Y370699D01*
X552935Y370617D01*
X552995Y370538D01*
X553059Y370460D01*
X553125Y370386D01*
X553194Y370314D01*
X553266Y370245D01*
X553340Y370179D01*
X553418Y370115D01*
X553497Y370055D01*
X553579Y369998D01*
X553663Y369944D01*
X553749Y369894D01*
X553837Y369847D01*
X553927Y369803D01*
X554018Y369763D01*
X554111Y369727D01*
X554205Y369694D01*
X554301Y369665D01*
X554397Y369640D01*
X554494Y369619D01*
X554593Y369601D01*
X554691Y369588D01*
X554791Y369578D01*
X554890Y369572D01*
X554990Y369570D01*
X615950Y372110D02*
X615950Y389890D01*
X613410Y369570D02*
X609600Y369570D01*
X608330Y370840D01*
X609600Y392430D02*
X613410Y392430D01*
X609600Y392430D02*
X608330Y391160D01*
X560070Y370840D02*
X558800Y369570D01*
X560070Y370840D02*
X608330Y370840D01*
X560070Y391160D02*
X558800Y392430D01*
X560070Y391160D02*
X608330Y391160D01*
X558800Y369570D02*
X554990Y369570D01*
X554990Y392430D02*
X558800Y392430D01*
X552450Y389890D02*
X552450Y372110D01*
D11*
X543560Y381000D02*
X539750Y381000D01*
X624840Y381000D02*
X628650Y381000D01*
D12*
X548132Y381000D03*
X620268Y381000D03*
X535432Y381000D03*
X632968Y381000D03*
D13*
X597618Y366395D02*
X597618Y354965D01*
X597618Y366395D02*
X600793Y366395D01*
X600904Y366393D01*
X601014Y366387D01*
X601125Y366378D01*
X601235Y366364D01*
X601344Y366347D01*
X601453Y366326D01*
X601561Y366301D01*
X601668Y366272D01*
X601774Y366240D01*
X601879Y366204D01*
X601982Y366164D01*
X602084Y366121D01*
X602185Y366074D01*
X602284Y366023D01*
X602381Y365970D01*
X602475Y365913D01*
X602568Y365852D01*
X602659Y365789D01*
X602748Y365722D01*
X602834Y365652D01*
X602917Y365579D01*
X602999Y365504D01*
X603077Y365426D01*
X603152Y365344D01*
X603225Y365261D01*
X603295Y365175D01*
X603362Y365086D01*
X603425Y364995D01*
X603486Y364902D01*
X603543Y364807D01*
X603596Y364711D01*
X603647Y364612D01*
X603694Y364511D01*
X603737Y364409D01*
X603777Y364306D01*
X603813Y364201D01*
X603845Y364095D01*
X603874Y363988D01*
X603899Y363880D01*
X603920Y363771D01*
X603937Y363662D01*
X603951Y363552D01*
X603960Y363441D01*
X603966Y363331D01*
X603968Y363220D01*
X603966Y363109D01*
X603960Y362999D01*
X603951Y362888D01*
X603937Y362778D01*
X603920Y362669D01*
X603899Y362560D01*
X603874Y362452D01*
X603845Y362345D01*
X603813Y362239D01*
X603777Y362134D01*
X603737Y362031D01*
X603694Y361929D01*
X603647Y361828D01*
X603596Y361729D01*
X603543Y361632D01*
X603486Y361538D01*
X603425Y361445D01*
X603362Y361354D01*
X603295Y361265D01*
X603225Y361179D01*
X603152Y361096D01*
X603077Y361014D01*
X602999Y360936D01*
X602917Y360861D01*
X602834Y360788D01*
X602748Y360718D01*
X602659Y360651D01*
X602568Y360588D01*
X602475Y360527D01*
X602381Y360470D01*
X602284Y360417D01*
X602185Y360366D01*
X602084Y360319D01*
X601982Y360276D01*
X601879Y360236D01*
X601774Y360200D01*
X601668Y360168D01*
X601561Y360139D01*
X601453Y360114D01*
X601344Y360093D01*
X601235Y360076D01*
X601125Y360062D01*
X601014Y360053D01*
X600904Y360047D01*
X600793Y360045D01*
X597618Y360045D01*
X601428Y360045D02*
X603968Y354965D01*
X608965Y354965D02*
X612140Y354965D01*
X612251Y354967D01*
X612361Y354973D01*
X612472Y354982D01*
X612582Y354996D01*
X612691Y355013D01*
X612800Y355034D01*
X612908Y355059D01*
X613015Y355088D01*
X613121Y355120D01*
X613226Y355156D01*
X613329Y355196D01*
X613431Y355239D01*
X613532Y355286D01*
X613631Y355337D01*
X613728Y355390D01*
X613822Y355447D01*
X613915Y355508D01*
X614006Y355571D01*
X614095Y355638D01*
X614181Y355708D01*
X614264Y355781D01*
X614346Y355856D01*
X614424Y355934D01*
X614499Y356016D01*
X614572Y356099D01*
X614642Y356185D01*
X614709Y356274D01*
X614772Y356365D01*
X614833Y356458D01*
X614890Y356552D01*
X614943Y356649D01*
X614994Y356748D01*
X615041Y356849D01*
X615084Y356951D01*
X615124Y357054D01*
X615160Y357159D01*
X615192Y357265D01*
X615221Y357372D01*
X615246Y357480D01*
X615267Y357589D01*
X615284Y357698D01*
X615298Y357808D01*
X615307Y357919D01*
X615313Y358029D01*
X615315Y358140D01*
X615313Y358251D01*
X615307Y358361D01*
X615298Y358472D01*
X615284Y358582D01*
X615267Y358691D01*
X615246Y358800D01*
X615221Y358908D01*
X615192Y359015D01*
X615160Y359121D01*
X615124Y359226D01*
X615084Y359329D01*
X615041Y359431D01*
X614994Y359532D01*
X614943Y359631D01*
X614890Y359727D01*
X614833Y359822D01*
X614772Y359915D01*
X614709Y360006D01*
X614642Y360095D01*
X614572Y360181D01*
X614499Y360264D01*
X614424Y360346D01*
X614346Y360424D01*
X614264Y360499D01*
X614181Y360572D01*
X614095Y360642D01*
X614006Y360709D01*
X613915Y360772D01*
X613822Y360833D01*
X613728Y360890D01*
X613631Y360943D01*
X613532Y360994D01*
X613431Y361041D01*
X613329Y361084D01*
X613226Y361124D01*
X613121Y361160D01*
X613015Y361192D01*
X612908Y361221D01*
X612800Y361246D01*
X612691Y361267D01*
X612582Y361284D01*
X612472Y361298D01*
X612361Y361307D01*
X612251Y361313D01*
X612140Y361315D01*
X612775Y366395D02*
X608965Y366395D01*
X612775Y366395D02*
X612875Y366393D01*
X612974Y366387D01*
X613074Y366377D01*
X613172Y366364D01*
X613271Y366346D01*
X613368Y366325D01*
X613464Y366300D01*
X613560Y366271D01*
X613654Y366238D01*
X613747Y366202D01*
X613838Y366162D01*
X613928Y366118D01*
X614016Y366071D01*
X614102Y366021D01*
X614186Y365967D01*
X614268Y365910D01*
X614347Y365850D01*
X614425Y365786D01*
X614499Y365720D01*
X614571Y365651D01*
X614640Y365579D01*
X614706Y365505D01*
X614770Y365427D01*
X614830Y365348D01*
X614887Y365266D01*
X614941Y365182D01*
X614991Y365096D01*
X615038Y365008D01*
X615082Y364918D01*
X615122Y364827D01*
X615158Y364734D01*
X615191Y364640D01*
X615220Y364544D01*
X615245Y364448D01*
X615266Y364351D01*
X615284Y364252D01*
X615297Y364154D01*
X615307Y364054D01*
X615313Y363955D01*
X615315Y363855D01*
X615313Y363755D01*
X615307Y363656D01*
X615297Y363556D01*
X615284Y363458D01*
X615266Y363359D01*
X615245Y363262D01*
X615220Y363166D01*
X615191Y363070D01*
X615158Y362976D01*
X615122Y362883D01*
X615082Y362792D01*
X615038Y362702D01*
X614991Y362614D01*
X614941Y362528D01*
X614887Y362444D01*
X614830Y362362D01*
X614770Y362283D01*
X614706Y362205D01*
X614640Y362131D01*
X614571Y362059D01*
X614499Y361990D01*
X614425Y361924D01*
X614347Y361860D01*
X614268Y361800D01*
X614186Y361743D01*
X614102Y361689D01*
X614016Y361639D01*
X613928Y361592D01*
X613838Y361548D01*
X613747Y361508D01*
X613654Y361472D01*
X613560Y361439D01*
X613464Y361410D01*
X613368Y361385D01*
X613271Y361364D01*
X613172Y361346D01*
X613074Y361333D01*
X612974Y361323D01*
X612875Y361317D01*
X612775Y361315D01*
X610235Y361315D01*
D10*
X549910Y420370D02*
X550010Y420372D01*
X550109Y420378D01*
X550209Y420388D01*
X550307Y420401D01*
X550406Y420419D01*
X550503Y420440D01*
X550599Y420465D01*
X550695Y420494D01*
X550789Y420527D01*
X550882Y420563D01*
X550973Y420603D01*
X551063Y420647D01*
X551151Y420694D01*
X551237Y420744D01*
X551321Y420798D01*
X551403Y420855D01*
X551482Y420915D01*
X551560Y420979D01*
X551634Y421045D01*
X551706Y421114D01*
X551775Y421186D01*
X551841Y421260D01*
X551905Y421338D01*
X551965Y421417D01*
X552022Y421499D01*
X552076Y421583D01*
X552126Y421669D01*
X552173Y421757D01*
X552217Y421847D01*
X552257Y421938D01*
X552293Y422031D01*
X552326Y422125D01*
X552355Y422221D01*
X552380Y422317D01*
X552401Y422414D01*
X552419Y422513D01*
X552432Y422611D01*
X552442Y422711D01*
X552448Y422810D01*
X552450Y422910D01*
X552450Y440690D02*
X552448Y440790D01*
X552442Y440889D01*
X552432Y440989D01*
X552419Y441087D01*
X552401Y441186D01*
X552380Y441283D01*
X552355Y441379D01*
X552326Y441475D01*
X552293Y441569D01*
X552257Y441662D01*
X552217Y441753D01*
X552173Y441843D01*
X552126Y441931D01*
X552076Y442017D01*
X552022Y442101D01*
X551965Y442183D01*
X551905Y442262D01*
X551841Y442340D01*
X551775Y442414D01*
X551706Y442486D01*
X551634Y442555D01*
X551560Y442621D01*
X551482Y442685D01*
X551403Y442745D01*
X551321Y442802D01*
X551237Y442856D01*
X551151Y442906D01*
X551063Y442953D01*
X550973Y442997D01*
X550882Y443037D01*
X550789Y443073D01*
X550695Y443106D01*
X550599Y443135D01*
X550503Y443160D01*
X550406Y443181D01*
X550307Y443199D01*
X550209Y443212D01*
X550109Y443222D01*
X550010Y443228D01*
X549910Y443230D01*
X491490Y443230D02*
X491390Y443228D01*
X491291Y443222D01*
X491191Y443212D01*
X491093Y443199D01*
X490994Y443181D01*
X490897Y443160D01*
X490801Y443135D01*
X490705Y443106D01*
X490611Y443073D01*
X490518Y443037D01*
X490427Y442997D01*
X490337Y442953D01*
X490249Y442906D01*
X490163Y442856D01*
X490079Y442802D01*
X489997Y442745D01*
X489918Y442685D01*
X489840Y442621D01*
X489766Y442555D01*
X489694Y442486D01*
X489625Y442414D01*
X489559Y442340D01*
X489495Y442262D01*
X489435Y442183D01*
X489378Y442101D01*
X489324Y442017D01*
X489274Y441931D01*
X489227Y441843D01*
X489183Y441753D01*
X489143Y441662D01*
X489107Y441569D01*
X489074Y441475D01*
X489045Y441379D01*
X489020Y441283D01*
X488999Y441186D01*
X488981Y441087D01*
X488968Y440989D01*
X488958Y440889D01*
X488952Y440790D01*
X488950Y440690D01*
X488950Y422910D02*
X488952Y422810D01*
X488958Y422711D01*
X488968Y422611D01*
X488981Y422513D01*
X488999Y422414D01*
X489020Y422317D01*
X489045Y422221D01*
X489074Y422125D01*
X489107Y422031D01*
X489143Y421938D01*
X489183Y421847D01*
X489227Y421757D01*
X489274Y421669D01*
X489324Y421583D01*
X489378Y421499D01*
X489435Y421417D01*
X489495Y421338D01*
X489559Y421260D01*
X489625Y421186D01*
X489694Y421114D01*
X489766Y421045D01*
X489840Y420979D01*
X489918Y420915D01*
X489997Y420855D01*
X490079Y420798D01*
X490163Y420744D01*
X490249Y420694D01*
X490337Y420647D01*
X490427Y420603D01*
X490518Y420563D01*
X490611Y420527D01*
X490705Y420494D01*
X490801Y420465D01*
X490897Y420440D01*
X490994Y420419D01*
X491093Y420401D01*
X491191Y420388D01*
X491291Y420378D01*
X491390Y420372D01*
X491490Y420370D01*
X552450Y422910D02*
X552450Y440690D01*
X549910Y420370D02*
X546100Y420370D01*
X544830Y421640D01*
X546100Y443230D02*
X549910Y443230D01*
X546100Y443230D02*
X544830Y441960D01*
X496570Y421640D02*
X495300Y420370D01*
X496570Y421640D02*
X544830Y421640D01*
X496570Y441960D02*
X495300Y443230D01*
X496570Y441960D02*
X544830Y441960D01*
X495300Y420370D02*
X491490Y420370D01*
X491490Y443230D02*
X495300Y443230D01*
X488950Y440690D02*
X488950Y422910D01*
D11*
X480060Y431800D02*
X476250Y431800D01*
X561340Y431800D02*
X565150Y431800D01*
D12*
X484632Y431800D03*
X556768Y431800D03*
X471932Y431800D03*
X569468Y431800D03*
D13*
X534118Y417195D02*
X534118Y405765D01*
X534118Y417195D02*
X537293Y417195D01*
X537404Y417193D01*
X537514Y417187D01*
X537625Y417178D01*
X537735Y417164D01*
X537844Y417147D01*
X537953Y417126D01*
X538061Y417101D01*
X538168Y417072D01*
X538274Y417040D01*
X538379Y417004D01*
X538482Y416964D01*
X538584Y416921D01*
X538685Y416874D01*
X538784Y416823D01*
X538881Y416770D01*
X538975Y416713D01*
X539068Y416652D01*
X539159Y416589D01*
X539248Y416522D01*
X539334Y416452D01*
X539417Y416379D01*
X539499Y416304D01*
X539577Y416226D01*
X539652Y416144D01*
X539725Y416061D01*
X539795Y415975D01*
X539862Y415886D01*
X539925Y415795D01*
X539986Y415702D01*
X540043Y415607D01*
X540096Y415511D01*
X540147Y415412D01*
X540194Y415311D01*
X540237Y415209D01*
X540277Y415106D01*
X540313Y415001D01*
X540345Y414895D01*
X540374Y414788D01*
X540399Y414680D01*
X540420Y414571D01*
X540437Y414462D01*
X540451Y414352D01*
X540460Y414241D01*
X540466Y414131D01*
X540468Y414020D01*
X540466Y413909D01*
X540460Y413799D01*
X540451Y413688D01*
X540437Y413578D01*
X540420Y413469D01*
X540399Y413360D01*
X540374Y413252D01*
X540345Y413145D01*
X540313Y413039D01*
X540277Y412934D01*
X540237Y412831D01*
X540194Y412729D01*
X540147Y412628D01*
X540096Y412529D01*
X540043Y412432D01*
X539986Y412338D01*
X539925Y412245D01*
X539862Y412154D01*
X539795Y412065D01*
X539725Y411979D01*
X539652Y411896D01*
X539577Y411814D01*
X539499Y411736D01*
X539417Y411661D01*
X539334Y411588D01*
X539248Y411518D01*
X539159Y411451D01*
X539068Y411388D01*
X538975Y411327D01*
X538881Y411270D01*
X538784Y411217D01*
X538685Y411166D01*
X538584Y411119D01*
X538482Y411076D01*
X538379Y411036D01*
X538274Y411000D01*
X538168Y410968D01*
X538061Y410939D01*
X537953Y410914D01*
X537844Y410893D01*
X537735Y410876D01*
X537625Y410862D01*
X537514Y410853D01*
X537404Y410847D01*
X537293Y410845D01*
X534118Y410845D01*
X537928Y410845D02*
X540468Y405765D01*
X545465Y412115D02*
X549275Y412115D01*
X549375Y412113D01*
X549474Y412107D01*
X549574Y412097D01*
X549672Y412084D01*
X549771Y412066D01*
X549868Y412045D01*
X549964Y412020D01*
X550060Y411991D01*
X550154Y411958D01*
X550247Y411922D01*
X550338Y411882D01*
X550428Y411838D01*
X550516Y411791D01*
X550602Y411741D01*
X550686Y411687D01*
X550768Y411630D01*
X550847Y411570D01*
X550925Y411506D01*
X550999Y411440D01*
X551071Y411371D01*
X551140Y411299D01*
X551206Y411225D01*
X551270Y411147D01*
X551330Y411068D01*
X551387Y410986D01*
X551441Y410902D01*
X551491Y410816D01*
X551538Y410728D01*
X551582Y410638D01*
X551622Y410547D01*
X551658Y410454D01*
X551691Y410360D01*
X551720Y410264D01*
X551745Y410168D01*
X551766Y410071D01*
X551784Y409972D01*
X551797Y409874D01*
X551807Y409774D01*
X551813Y409675D01*
X551815Y409575D01*
X551815Y408940D01*
X551813Y408829D01*
X551807Y408719D01*
X551798Y408608D01*
X551784Y408498D01*
X551767Y408389D01*
X551746Y408280D01*
X551721Y408172D01*
X551692Y408065D01*
X551660Y407959D01*
X551624Y407854D01*
X551584Y407751D01*
X551541Y407649D01*
X551494Y407548D01*
X551443Y407449D01*
X551390Y407352D01*
X551333Y407258D01*
X551272Y407165D01*
X551209Y407074D01*
X551142Y406985D01*
X551072Y406899D01*
X550999Y406816D01*
X550924Y406734D01*
X550846Y406656D01*
X550764Y406581D01*
X550681Y406508D01*
X550595Y406438D01*
X550506Y406371D01*
X550415Y406308D01*
X550322Y406247D01*
X550228Y406190D01*
X550131Y406137D01*
X550032Y406086D01*
X549931Y406039D01*
X549829Y405996D01*
X549726Y405956D01*
X549621Y405920D01*
X549515Y405888D01*
X549408Y405859D01*
X549300Y405834D01*
X549191Y405813D01*
X549082Y405796D01*
X548972Y405782D01*
X548861Y405773D01*
X548751Y405767D01*
X548640Y405765D01*
X548529Y405767D01*
X548419Y405773D01*
X548308Y405782D01*
X548198Y405796D01*
X548089Y405813D01*
X547980Y405834D01*
X547872Y405859D01*
X547765Y405888D01*
X547659Y405920D01*
X547554Y405956D01*
X547451Y405996D01*
X547349Y406039D01*
X547248Y406086D01*
X547149Y406137D01*
X547053Y406190D01*
X546958Y406247D01*
X546865Y406308D01*
X546774Y406371D01*
X546685Y406438D01*
X546599Y406508D01*
X546516Y406581D01*
X546434Y406656D01*
X546356Y406734D01*
X546281Y406816D01*
X546208Y406899D01*
X546138Y406985D01*
X546071Y407074D01*
X546008Y407165D01*
X545947Y407258D01*
X545890Y407353D01*
X545837Y407449D01*
X545786Y407548D01*
X545739Y407649D01*
X545696Y407751D01*
X545656Y407854D01*
X545620Y407959D01*
X545588Y408065D01*
X545559Y408172D01*
X545534Y408280D01*
X545513Y408389D01*
X545496Y408498D01*
X545482Y408608D01*
X545473Y408719D01*
X545467Y408829D01*
X545465Y408940D01*
X545465Y412115D01*
X545467Y412255D01*
X545473Y412395D01*
X545482Y412535D01*
X545496Y412674D01*
X545513Y412813D01*
X545534Y412951D01*
X545559Y413089D01*
X545588Y413226D01*
X545620Y413362D01*
X545657Y413497D01*
X545697Y413631D01*
X545740Y413764D01*
X545788Y413896D01*
X545838Y414027D01*
X545893Y414156D01*
X545951Y414283D01*
X546012Y414409D01*
X546077Y414533D01*
X546146Y414655D01*
X546217Y414775D01*
X546292Y414893D01*
X546370Y415010D01*
X546452Y415124D01*
X546536Y415235D01*
X546624Y415344D01*
X546714Y415451D01*
X546808Y415556D01*
X546904Y415657D01*
X547003Y415756D01*
X547104Y415852D01*
X547209Y415946D01*
X547316Y416036D01*
X547425Y416124D01*
X547536Y416208D01*
X547650Y416290D01*
X547767Y416368D01*
X547885Y416443D01*
X548005Y416514D01*
X548127Y416583D01*
X548251Y416648D01*
X548377Y416709D01*
X548504Y416767D01*
X548633Y416822D01*
X548764Y416872D01*
X548896Y416920D01*
X549029Y416963D01*
X549163Y417003D01*
X549298Y417040D01*
X549434Y417072D01*
X549571Y417101D01*
X549709Y417126D01*
X549847Y417147D01*
X549986Y417164D01*
X550125Y417178D01*
X550265Y417187D01*
X550405Y417193D01*
X550545Y417195D01*
D10*
X613410Y471170D02*
X613510Y471172D01*
X613609Y471178D01*
X613709Y471188D01*
X613807Y471201D01*
X613906Y471219D01*
X614003Y471240D01*
X614099Y471265D01*
X614195Y471294D01*
X614289Y471327D01*
X614382Y471363D01*
X614473Y471403D01*
X614563Y471447D01*
X614651Y471494D01*
X614737Y471544D01*
X614821Y471598D01*
X614903Y471655D01*
X614982Y471715D01*
X615060Y471779D01*
X615134Y471845D01*
X615206Y471914D01*
X615275Y471986D01*
X615341Y472060D01*
X615405Y472138D01*
X615465Y472217D01*
X615522Y472299D01*
X615576Y472383D01*
X615626Y472469D01*
X615673Y472557D01*
X615717Y472647D01*
X615757Y472738D01*
X615793Y472831D01*
X615826Y472925D01*
X615855Y473021D01*
X615880Y473117D01*
X615901Y473214D01*
X615919Y473313D01*
X615932Y473411D01*
X615942Y473511D01*
X615948Y473610D01*
X615950Y473710D01*
X615950Y491490D02*
X615948Y491590D01*
X615942Y491689D01*
X615932Y491789D01*
X615919Y491887D01*
X615901Y491986D01*
X615880Y492083D01*
X615855Y492179D01*
X615826Y492275D01*
X615793Y492369D01*
X615757Y492462D01*
X615717Y492553D01*
X615673Y492643D01*
X615626Y492731D01*
X615576Y492817D01*
X615522Y492901D01*
X615465Y492983D01*
X615405Y493062D01*
X615341Y493140D01*
X615275Y493214D01*
X615206Y493286D01*
X615134Y493355D01*
X615060Y493421D01*
X614982Y493485D01*
X614903Y493545D01*
X614821Y493602D01*
X614737Y493656D01*
X614651Y493706D01*
X614563Y493753D01*
X614473Y493797D01*
X614382Y493837D01*
X614289Y493873D01*
X614195Y493906D01*
X614099Y493935D01*
X614003Y493960D01*
X613906Y493981D01*
X613807Y493999D01*
X613709Y494012D01*
X613609Y494022D01*
X613510Y494028D01*
X613410Y494030D01*
X554990Y494030D02*
X554890Y494028D01*
X554791Y494022D01*
X554691Y494012D01*
X554593Y493999D01*
X554494Y493981D01*
X554397Y493960D01*
X554301Y493935D01*
X554205Y493906D01*
X554111Y493873D01*
X554018Y493837D01*
X553927Y493797D01*
X553837Y493753D01*
X553749Y493706D01*
X553663Y493656D01*
X553579Y493602D01*
X553497Y493545D01*
X553418Y493485D01*
X553340Y493421D01*
X553266Y493355D01*
X553194Y493286D01*
X553125Y493214D01*
X553059Y493140D01*
X552995Y493062D01*
X552935Y492983D01*
X552878Y492901D01*
X552824Y492817D01*
X552774Y492731D01*
X552727Y492643D01*
X552683Y492553D01*
X552643Y492462D01*
X552607Y492369D01*
X552574Y492275D01*
X552545Y492179D01*
X552520Y492083D01*
X552499Y491986D01*
X552481Y491887D01*
X552468Y491789D01*
X552458Y491689D01*
X552452Y491590D01*
X552450Y491490D01*
X552450Y473710D02*
X552452Y473610D01*
X552458Y473511D01*
X552468Y473411D01*
X552481Y473313D01*
X552499Y473214D01*
X552520Y473117D01*
X552545Y473021D01*
X552574Y472925D01*
X552607Y472831D01*
X552643Y472738D01*
X552683Y472647D01*
X552727Y472557D01*
X552774Y472469D01*
X552824Y472383D01*
X552878Y472299D01*
X552935Y472217D01*
X552995Y472138D01*
X553059Y472060D01*
X553125Y471986D01*
X553194Y471914D01*
X553266Y471845D01*
X553340Y471779D01*
X553418Y471715D01*
X553497Y471655D01*
X553579Y471598D01*
X553663Y471544D01*
X553749Y471494D01*
X553837Y471447D01*
X553927Y471403D01*
X554018Y471363D01*
X554111Y471327D01*
X554205Y471294D01*
X554301Y471265D01*
X554397Y471240D01*
X554494Y471219D01*
X554593Y471201D01*
X554691Y471188D01*
X554791Y471178D01*
X554890Y471172D01*
X554990Y471170D01*
X615950Y473710D02*
X615950Y491490D01*
X613410Y471170D02*
X609600Y471170D01*
X608330Y472440D01*
X609600Y494030D02*
X613410Y494030D01*
X609600Y494030D02*
X608330Y492760D01*
X560070Y472440D02*
X558800Y471170D01*
X560070Y472440D02*
X608330Y472440D01*
X560070Y492760D02*
X558800Y494030D01*
X560070Y492760D02*
X608330Y492760D01*
X558800Y471170D02*
X554990Y471170D01*
X554990Y494030D02*
X558800Y494030D01*
X552450Y491490D02*
X552450Y473710D01*
D11*
X543560Y482600D02*
X539750Y482600D01*
X624840Y482600D02*
X628650Y482600D01*
D12*
X548132Y482600D03*
X620268Y482600D03*
X535432Y482600D03*
X632968Y482600D03*
D13*
X597618Y467995D02*
X597618Y456565D01*
X597618Y467995D02*
X600793Y467995D01*
X600904Y467993D01*
X601014Y467987D01*
X601125Y467978D01*
X601235Y467964D01*
X601344Y467947D01*
X601453Y467926D01*
X601561Y467901D01*
X601668Y467872D01*
X601774Y467840D01*
X601879Y467804D01*
X601982Y467764D01*
X602084Y467721D01*
X602185Y467674D01*
X602284Y467623D01*
X602381Y467570D01*
X602475Y467513D01*
X602568Y467452D01*
X602659Y467389D01*
X602748Y467322D01*
X602834Y467252D01*
X602917Y467179D01*
X602999Y467104D01*
X603077Y467026D01*
X603152Y466944D01*
X603225Y466861D01*
X603295Y466775D01*
X603362Y466686D01*
X603425Y466595D01*
X603486Y466502D01*
X603543Y466407D01*
X603596Y466311D01*
X603647Y466212D01*
X603694Y466111D01*
X603737Y466009D01*
X603777Y465906D01*
X603813Y465801D01*
X603845Y465695D01*
X603874Y465588D01*
X603899Y465480D01*
X603920Y465371D01*
X603937Y465262D01*
X603951Y465152D01*
X603960Y465041D01*
X603966Y464931D01*
X603968Y464820D01*
X603966Y464709D01*
X603960Y464599D01*
X603951Y464488D01*
X603937Y464378D01*
X603920Y464269D01*
X603899Y464160D01*
X603874Y464052D01*
X603845Y463945D01*
X603813Y463839D01*
X603777Y463734D01*
X603737Y463631D01*
X603694Y463529D01*
X603647Y463428D01*
X603596Y463329D01*
X603543Y463232D01*
X603486Y463138D01*
X603425Y463045D01*
X603362Y462954D01*
X603295Y462865D01*
X603225Y462779D01*
X603152Y462696D01*
X603077Y462614D01*
X602999Y462536D01*
X602917Y462461D01*
X602834Y462388D01*
X602748Y462318D01*
X602659Y462251D01*
X602568Y462188D01*
X602475Y462127D01*
X602381Y462070D01*
X602284Y462017D01*
X602185Y461966D01*
X602084Y461919D01*
X601982Y461876D01*
X601879Y461836D01*
X601774Y461800D01*
X601668Y461768D01*
X601561Y461739D01*
X601453Y461714D01*
X601344Y461693D01*
X601235Y461676D01*
X601125Y461662D01*
X601014Y461653D01*
X600904Y461647D01*
X600793Y461645D01*
X597618Y461645D01*
X601428Y461645D02*
X603968Y456565D01*
X608965Y466725D02*
X608965Y467995D01*
X615315Y467995D01*
X612140Y456565D01*
D10*
X615950Y295910D02*
X615948Y295810D01*
X615942Y295711D01*
X615932Y295611D01*
X615919Y295513D01*
X615901Y295414D01*
X615880Y295317D01*
X615855Y295221D01*
X615826Y295125D01*
X615793Y295031D01*
X615757Y294938D01*
X615717Y294847D01*
X615673Y294757D01*
X615626Y294669D01*
X615576Y294583D01*
X615522Y294499D01*
X615465Y294417D01*
X615405Y294338D01*
X615341Y294260D01*
X615275Y294186D01*
X615206Y294114D01*
X615134Y294045D01*
X615060Y293979D01*
X614982Y293915D01*
X614903Y293855D01*
X614821Y293798D01*
X614737Y293744D01*
X614651Y293694D01*
X614563Y293647D01*
X614473Y293603D01*
X614382Y293563D01*
X614289Y293527D01*
X614195Y293494D01*
X614099Y293465D01*
X614003Y293440D01*
X613906Y293419D01*
X613807Y293401D01*
X613709Y293388D01*
X613609Y293378D01*
X613510Y293372D01*
X613410Y293370D01*
X615950Y313690D02*
X615948Y313790D01*
X615942Y313889D01*
X615932Y313989D01*
X615919Y314087D01*
X615901Y314186D01*
X615880Y314283D01*
X615855Y314379D01*
X615826Y314475D01*
X615793Y314569D01*
X615757Y314662D01*
X615717Y314753D01*
X615673Y314843D01*
X615626Y314931D01*
X615576Y315017D01*
X615522Y315101D01*
X615465Y315183D01*
X615405Y315262D01*
X615341Y315340D01*
X615275Y315414D01*
X615206Y315486D01*
X615134Y315555D01*
X615060Y315621D01*
X614982Y315685D01*
X614903Y315745D01*
X614821Y315802D01*
X614737Y315856D01*
X614651Y315906D01*
X614563Y315953D01*
X614473Y315997D01*
X614382Y316037D01*
X614289Y316073D01*
X614195Y316106D01*
X614099Y316135D01*
X614003Y316160D01*
X613906Y316181D01*
X613807Y316199D01*
X613709Y316212D01*
X613609Y316222D01*
X613510Y316228D01*
X613410Y316230D01*
X554990Y316230D02*
X554890Y316228D01*
X554791Y316222D01*
X554691Y316212D01*
X554593Y316199D01*
X554494Y316181D01*
X554397Y316160D01*
X554301Y316135D01*
X554205Y316106D01*
X554111Y316073D01*
X554018Y316037D01*
X553927Y315997D01*
X553837Y315953D01*
X553749Y315906D01*
X553663Y315856D01*
X553579Y315802D01*
X553497Y315745D01*
X553418Y315685D01*
X553340Y315621D01*
X553266Y315555D01*
X553194Y315486D01*
X553125Y315414D01*
X553059Y315340D01*
X552995Y315262D01*
X552935Y315183D01*
X552878Y315101D01*
X552824Y315017D01*
X552774Y314931D01*
X552727Y314843D01*
X552683Y314753D01*
X552643Y314662D01*
X552607Y314569D01*
X552574Y314475D01*
X552545Y314379D01*
X552520Y314283D01*
X552499Y314186D01*
X552481Y314087D01*
X552468Y313989D01*
X552458Y313889D01*
X552452Y313790D01*
X552450Y313690D01*
X552450Y295910D02*
X552452Y295810D01*
X552458Y295711D01*
X552468Y295611D01*
X552481Y295513D01*
X552499Y295414D01*
X552520Y295317D01*
X552545Y295221D01*
X552574Y295125D01*
X552607Y295031D01*
X552643Y294938D01*
X552683Y294847D01*
X552727Y294757D01*
X552774Y294669D01*
X552824Y294583D01*
X552878Y294499D01*
X552935Y294417D01*
X552995Y294338D01*
X553059Y294260D01*
X553125Y294186D01*
X553194Y294114D01*
X553266Y294045D01*
X553340Y293979D01*
X553418Y293915D01*
X553497Y293855D01*
X553579Y293798D01*
X553663Y293744D01*
X553749Y293694D01*
X553837Y293647D01*
X553927Y293603D01*
X554018Y293563D01*
X554111Y293527D01*
X554205Y293494D01*
X554301Y293465D01*
X554397Y293440D01*
X554494Y293419D01*
X554593Y293401D01*
X554691Y293388D01*
X554791Y293378D01*
X554890Y293372D01*
X554990Y293370D01*
X615950Y295910D02*
X615950Y313690D01*
X613410Y293370D02*
X609600Y293370D01*
X608330Y294640D01*
X609600Y316230D02*
X613410Y316230D01*
X609600Y316230D02*
X608330Y314960D01*
X560070Y294640D02*
X558800Y293370D01*
X560070Y294640D02*
X608330Y294640D01*
X560070Y314960D02*
X558800Y316230D01*
X560070Y314960D02*
X608330Y314960D01*
X558800Y293370D02*
X554990Y293370D01*
X554990Y316230D02*
X558800Y316230D01*
X552450Y313690D02*
X552450Y295910D01*
D11*
X543560Y304800D02*
X539750Y304800D01*
X624840Y304800D02*
X628650Y304800D01*
D12*
X548132Y304800D03*
X620268Y304800D03*
X535432Y304800D03*
X632968Y304800D03*
D13*
X597618Y290195D02*
X597618Y278765D01*
X597618Y290195D02*
X600793Y290195D01*
X600904Y290193D01*
X601014Y290187D01*
X601125Y290178D01*
X601235Y290164D01*
X601344Y290147D01*
X601453Y290126D01*
X601561Y290101D01*
X601668Y290072D01*
X601774Y290040D01*
X601879Y290004D01*
X601982Y289964D01*
X602084Y289921D01*
X602185Y289874D01*
X602284Y289823D01*
X602381Y289770D01*
X602475Y289713D01*
X602568Y289652D01*
X602659Y289589D01*
X602748Y289522D01*
X602834Y289452D01*
X602917Y289379D01*
X602999Y289304D01*
X603077Y289226D01*
X603152Y289144D01*
X603225Y289061D01*
X603295Y288975D01*
X603362Y288886D01*
X603425Y288795D01*
X603486Y288702D01*
X603543Y288607D01*
X603596Y288511D01*
X603647Y288412D01*
X603694Y288311D01*
X603737Y288209D01*
X603777Y288106D01*
X603813Y288001D01*
X603845Y287895D01*
X603874Y287788D01*
X603899Y287680D01*
X603920Y287571D01*
X603937Y287462D01*
X603951Y287352D01*
X603960Y287241D01*
X603966Y287131D01*
X603968Y287020D01*
X603966Y286909D01*
X603960Y286799D01*
X603951Y286688D01*
X603937Y286578D01*
X603920Y286469D01*
X603899Y286360D01*
X603874Y286252D01*
X603845Y286145D01*
X603813Y286039D01*
X603777Y285934D01*
X603737Y285831D01*
X603694Y285729D01*
X603647Y285628D01*
X603596Y285529D01*
X603543Y285432D01*
X603486Y285338D01*
X603425Y285245D01*
X603362Y285154D01*
X603295Y285065D01*
X603225Y284979D01*
X603152Y284896D01*
X603077Y284814D01*
X602999Y284736D01*
X602917Y284661D01*
X602834Y284588D01*
X602748Y284518D01*
X602659Y284451D01*
X602568Y284388D01*
X602475Y284327D01*
X602381Y284270D01*
X602284Y284217D01*
X602185Y284166D01*
X602084Y284119D01*
X601982Y284076D01*
X601879Y284036D01*
X601774Y284000D01*
X601668Y283968D01*
X601561Y283939D01*
X601453Y283914D01*
X601344Y283893D01*
X601235Y283876D01*
X601125Y283862D01*
X601014Y283853D01*
X600904Y283847D01*
X600793Y283845D01*
X597618Y283845D01*
X601428Y283845D02*
X603968Y278765D01*
X611505Y283845D02*
X615315Y283845D01*
X611505Y283845D02*
X611405Y283847D01*
X611306Y283853D01*
X611206Y283863D01*
X611108Y283876D01*
X611009Y283894D01*
X610912Y283915D01*
X610816Y283940D01*
X610720Y283969D01*
X610626Y284002D01*
X610533Y284038D01*
X610442Y284078D01*
X610352Y284122D01*
X610264Y284169D01*
X610178Y284219D01*
X610094Y284273D01*
X610012Y284330D01*
X609933Y284390D01*
X609855Y284454D01*
X609781Y284520D01*
X609709Y284589D01*
X609640Y284661D01*
X609574Y284735D01*
X609510Y284813D01*
X609450Y284892D01*
X609393Y284974D01*
X609339Y285058D01*
X609289Y285144D01*
X609242Y285232D01*
X609198Y285322D01*
X609158Y285413D01*
X609122Y285506D01*
X609089Y285600D01*
X609060Y285696D01*
X609035Y285792D01*
X609014Y285889D01*
X608996Y285988D01*
X608983Y286086D01*
X608973Y286186D01*
X608967Y286285D01*
X608965Y286385D01*
X608965Y287020D01*
X608967Y287131D01*
X608973Y287241D01*
X608982Y287352D01*
X608996Y287462D01*
X609013Y287571D01*
X609034Y287680D01*
X609059Y287788D01*
X609088Y287895D01*
X609120Y288001D01*
X609156Y288106D01*
X609196Y288209D01*
X609239Y288311D01*
X609286Y288412D01*
X609337Y288511D01*
X609390Y288608D01*
X609447Y288702D01*
X609508Y288795D01*
X609571Y288886D01*
X609638Y288975D01*
X609708Y289061D01*
X609781Y289144D01*
X609856Y289226D01*
X609934Y289304D01*
X610016Y289379D01*
X610099Y289452D01*
X610185Y289522D01*
X610274Y289589D01*
X610365Y289652D01*
X610458Y289713D01*
X610553Y289770D01*
X610649Y289823D01*
X610748Y289874D01*
X610849Y289921D01*
X610951Y289964D01*
X611054Y290004D01*
X611159Y290040D01*
X611265Y290072D01*
X611372Y290101D01*
X611480Y290126D01*
X611589Y290147D01*
X611698Y290164D01*
X611808Y290178D01*
X611919Y290187D01*
X612029Y290193D01*
X612140Y290195D01*
X612251Y290193D01*
X612361Y290187D01*
X612472Y290178D01*
X612582Y290164D01*
X612691Y290147D01*
X612800Y290126D01*
X612908Y290101D01*
X613015Y290072D01*
X613121Y290040D01*
X613226Y290004D01*
X613329Y289964D01*
X613431Y289921D01*
X613532Y289874D01*
X613631Y289823D01*
X613728Y289770D01*
X613822Y289713D01*
X613915Y289652D01*
X614006Y289589D01*
X614095Y289522D01*
X614181Y289452D01*
X614264Y289379D01*
X614346Y289304D01*
X614424Y289226D01*
X614499Y289144D01*
X614572Y289061D01*
X614642Y288975D01*
X614709Y288886D01*
X614772Y288795D01*
X614833Y288702D01*
X614890Y288608D01*
X614943Y288511D01*
X614994Y288412D01*
X615041Y288311D01*
X615084Y288209D01*
X615124Y288106D01*
X615160Y288001D01*
X615192Y287895D01*
X615221Y287788D01*
X615246Y287680D01*
X615267Y287571D01*
X615284Y287462D01*
X615298Y287352D01*
X615307Y287241D01*
X615313Y287131D01*
X615315Y287020D01*
X615315Y283845D01*
X615313Y283705D01*
X615307Y283565D01*
X615298Y283425D01*
X615284Y283286D01*
X615267Y283147D01*
X615246Y283009D01*
X615221Y282871D01*
X615192Y282734D01*
X615160Y282598D01*
X615123Y282463D01*
X615083Y282329D01*
X615040Y282196D01*
X614992Y282064D01*
X614942Y281933D01*
X614887Y281804D01*
X614829Y281677D01*
X614768Y281551D01*
X614703Y281427D01*
X614634Y281305D01*
X614563Y281185D01*
X614488Y281067D01*
X614410Y280950D01*
X614328Y280836D01*
X614244Y280725D01*
X614156Y280616D01*
X614066Y280509D01*
X613972Y280404D01*
X613876Y280303D01*
X613777Y280204D01*
X613676Y280108D01*
X613571Y280014D01*
X613464Y279924D01*
X613355Y279836D01*
X613244Y279752D01*
X613130Y279670D01*
X613013Y279592D01*
X612895Y279517D01*
X612775Y279446D01*
X612653Y279377D01*
X612529Y279312D01*
X612403Y279251D01*
X612276Y279193D01*
X612147Y279138D01*
X612016Y279088D01*
X611884Y279040D01*
X611751Y278997D01*
X611617Y278957D01*
X611482Y278920D01*
X611346Y278888D01*
X611209Y278859D01*
X611071Y278834D01*
X610933Y278813D01*
X610794Y278796D01*
X610655Y278782D01*
X610515Y278773D01*
X610375Y278767D01*
X610235Y278765D01*
X162560Y143300D02*
X162560Y593300D01*
X162560Y143300D02*
X146200Y143300D01*
X146200Y158300D01*
X146200Y318300D01*
X146200Y418300D01*
X146200Y578300D01*
X146200Y593300D01*
X162560Y593300D01*
X162560Y419100D02*
X162560Y317500D01*
X162560Y419100D02*
X187960Y419100D01*
X187960Y410210D01*
X187960Y402590D01*
X187960Y384810D01*
X187960Y377190D01*
X187960Y359410D01*
X187960Y351790D01*
X187960Y334010D01*
X187960Y326390D01*
X187960Y317500D01*
X162560Y317500D01*
X187960Y326390D02*
X194310Y326390D01*
X194310Y334010D02*
X187960Y334010D01*
X187960Y351790D02*
X194310Y351790D01*
X194310Y377190D02*
X187960Y377190D01*
X187960Y402590D02*
X194310Y402590D01*
X194310Y359410D02*
X187960Y359410D01*
X187960Y384810D02*
X194310Y384810D01*
X194310Y410210D02*
X187960Y410210D01*
X146200Y578300D02*
X26200Y578300D01*
X26200Y418300D01*
X146200Y418300D01*
X146200Y318300D02*
X26200Y318300D01*
X26200Y158300D01*
X146200Y158300D01*
D14*
X222758Y354196D02*
X231196Y354196D01*
X231309Y354198D01*
X231422Y354204D01*
X231535Y354214D01*
X231648Y354228D01*
X231760Y354245D01*
X231871Y354267D01*
X231981Y354292D01*
X232091Y354322D01*
X232199Y354355D01*
X232306Y354392D01*
X232412Y354432D01*
X232516Y354477D01*
X232619Y354525D01*
X232720Y354576D01*
X232819Y354631D01*
X232916Y354689D01*
X233011Y354751D01*
X233104Y354816D01*
X233194Y354884D01*
X233282Y354955D01*
X233368Y355030D01*
X233451Y355107D01*
X233531Y355187D01*
X233608Y355270D01*
X233683Y355356D01*
X233754Y355444D01*
X233822Y355534D01*
X233887Y355627D01*
X233949Y355722D01*
X234007Y355819D01*
X234062Y355918D01*
X234113Y356019D01*
X234161Y356122D01*
X234206Y356226D01*
X234246Y356332D01*
X234283Y356439D01*
X234316Y356547D01*
X234346Y356657D01*
X234371Y356767D01*
X234393Y356878D01*
X234410Y356990D01*
X234424Y357103D01*
X234434Y357216D01*
X234440Y357329D01*
X234442Y357442D01*
X234440Y357555D01*
X234434Y357668D01*
X234424Y357781D01*
X234410Y357894D01*
X234393Y358006D01*
X234371Y358117D01*
X234346Y358227D01*
X234316Y358337D01*
X234283Y358445D01*
X234246Y358552D01*
X234206Y358658D01*
X234161Y358762D01*
X234113Y358865D01*
X234062Y358966D01*
X234007Y359065D01*
X233949Y359162D01*
X233887Y359257D01*
X233822Y359350D01*
X233754Y359440D01*
X233683Y359528D01*
X233608Y359614D01*
X233531Y359697D01*
X233451Y359777D01*
X233368Y359854D01*
X233282Y359929D01*
X233194Y360000D01*
X233104Y360068D01*
X233011Y360133D01*
X232916Y360195D01*
X232819Y360253D01*
X232720Y360308D01*
X232619Y360359D01*
X232516Y360407D01*
X232412Y360452D01*
X232306Y360492D01*
X232199Y360529D01*
X232091Y360562D01*
X231981Y360592D01*
X231871Y360617D01*
X231760Y360639D01*
X231648Y360656D01*
X231535Y360670D01*
X231422Y360680D01*
X231309Y360686D01*
X231196Y360688D01*
X231196Y360687D02*
X222758Y360687D01*
X222758Y368491D02*
X234442Y368491D01*
X228600Y368491D02*
X227626Y366868D01*
X227627Y366867D02*
X227580Y366794D01*
X227531Y366723D01*
X227478Y366654D01*
X227422Y366587D01*
X227363Y366523D01*
X227302Y366461D01*
X227238Y366403D01*
X227171Y366347D01*
X227102Y366295D01*
X227030Y366245D01*
X226956Y366199D01*
X226881Y366156D01*
X226803Y366117D01*
X226724Y366081D01*
X226643Y366049D01*
X226561Y366020D01*
X226478Y365995D01*
X226394Y365974D01*
X226309Y365957D01*
X226223Y365943D01*
X226137Y365934D01*
X226050Y365928D01*
X225963Y365926D01*
X225876Y365928D01*
X225789Y365934D01*
X225703Y365944D01*
X225617Y365957D01*
X225532Y365975D01*
X225448Y365996D01*
X225365Y366021D01*
X225282Y366050D01*
X225202Y366082D01*
X225123Y366118D01*
X225045Y366157D01*
X224970Y366200D01*
X224896Y366247D01*
X224825Y366296D01*
X224755Y366349D01*
X224689Y366404D01*
X224625Y366463D01*
X224563Y366524D01*
X224504Y366588D01*
X224449Y366655D01*
X224396Y366724D01*
X224346Y366796D01*
X224300Y366869D01*
X224257Y366945D01*
X224218Y367022D01*
X224182Y367101D01*
X224149Y367182D01*
X224121Y367264D01*
X224095Y367347D01*
X224074Y367431D01*
X224057Y367516D01*
X224056Y367517D02*
X224032Y367657D01*
X224012Y367799D01*
X223996Y367940D01*
X223985Y368082D01*
X223977Y368225D01*
X223973Y368367D01*
X223972Y368510D01*
X223976Y368653D01*
X223984Y368795D01*
X223996Y368937D01*
X224012Y369079D01*
X224031Y369220D01*
X224055Y369361D01*
X224082Y369501D01*
X224114Y369640D01*
X224149Y369778D01*
X224188Y369916D01*
X224231Y370052D01*
X224277Y370186D01*
X224328Y370320D01*
X224381Y370452D01*
X224439Y370582D01*
X224500Y370711D01*
X224565Y370838D01*
X224633Y370964D01*
X224705Y371087D01*
X228600Y368491D02*
X229574Y370113D01*
X229573Y370114D02*
X229620Y370187D01*
X229669Y370258D01*
X229722Y370328D01*
X229778Y370394D01*
X229837Y370458D01*
X229898Y370520D01*
X229962Y370578D01*
X230029Y370634D01*
X230098Y370686D01*
X230170Y370736D01*
X230244Y370782D01*
X230319Y370825D01*
X230397Y370864D01*
X230476Y370900D01*
X230557Y370932D01*
X230639Y370961D01*
X230722Y370986D01*
X230806Y371007D01*
X230891Y371024D01*
X230977Y371038D01*
X231064Y371047D01*
X231150Y371053D01*
X231237Y371055D01*
X231324Y371053D01*
X231411Y371047D01*
X231497Y371037D01*
X231583Y371024D01*
X231668Y371006D01*
X231752Y370985D01*
X231835Y370960D01*
X231918Y370931D01*
X231998Y370899D01*
X232077Y370863D01*
X232155Y370824D01*
X232230Y370781D01*
X232304Y370734D01*
X232375Y370685D01*
X232445Y370632D01*
X232511Y370577D01*
X232575Y370518D01*
X232637Y370457D01*
X232696Y370392D01*
X232751Y370326D01*
X232804Y370257D01*
X232854Y370185D01*
X232900Y370112D01*
X232943Y370036D01*
X232982Y369959D01*
X233018Y369880D01*
X233051Y369799D01*
X233079Y369717D01*
X233105Y369634D01*
X233126Y369550D01*
X233143Y369464D01*
X233144Y369464D02*
X233168Y369324D01*
X233188Y369182D01*
X233204Y369041D01*
X233215Y368899D01*
X233223Y368756D01*
X233227Y368614D01*
X233228Y368471D01*
X233224Y368328D01*
X233216Y368186D01*
X233204Y368044D01*
X233188Y367902D01*
X233169Y367761D01*
X233145Y367620D01*
X233118Y367480D01*
X233086Y367341D01*
X233051Y367203D01*
X233012Y367065D01*
X232969Y366929D01*
X232923Y366795D01*
X232872Y366661D01*
X232819Y366529D01*
X232761Y366399D01*
X232700Y366270D01*
X232635Y366143D01*
X232567Y366017D01*
X232495Y365894D01*
X225354Y375913D02*
X222758Y379158D01*
X234442Y379158D01*
X234442Y375913D02*
X234442Y382404D01*
D13*
X234950Y622300D02*
X234950Y114300D01*
X234950Y622300D02*
X425450Y622300D01*
X425450Y114300D01*
X234950Y114300D01*
D14*
X339584Y130754D02*
X339584Y139192D01*
X339583Y130754D02*
X339585Y130641D01*
X339591Y130528D01*
X339601Y130415D01*
X339615Y130302D01*
X339632Y130190D01*
X339654Y130079D01*
X339679Y129969D01*
X339709Y129859D01*
X339742Y129751D01*
X339779Y129644D01*
X339819Y129538D01*
X339864Y129434D01*
X339912Y129331D01*
X339963Y129230D01*
X340018Y129131D01*
X340076Y129034D01*
X340138Y128939D01*
X340203Y128846D01*
X340271Y128756D01*
X340342Y128668D01*
X340417Y128582D01*
X340494Y128499D01*
X340574Y128419D01*
X340657Y128342D01*
X340743Y128267D01*
X340831Y128196D01*
X340921Y128128D01*
X341014Y128063D01*
X341109Y128001D01*
X341206Y127943D01*
X341305Y127888D01*
X341406Y127837D01*
X341509Y127789D01*
X341613Y127744D01*
X341719Y127704D01*
X341826Y127667D01*
X341934Y127634D01*
X342044Y127604D01*
X342154Y127579D01*
X342265Y127557D01*
X342377Y127540D01*
X342490Y127526D01*
X342603Y127516D01*
X342716Y127510D01*
X342829Y127508D01*
X342942Y127510D01*
X343055Y127516D01*
X343168Y127526D01*
X343281Y127540D01*
X343393Y127557D01*
X343504Y127579D01*
X343614Y127604D01*
X343724Y127634D01*
X343832Y127667D01*
X343939Y127704D01*
X344045Y127744D01*
X344149Y127789D01*
X344252Y127837D01*
X344353Y127888D01*
X344452Y127943D01*
X344549Y128001D01*
X344644Y128063D01*
X344737Y128128D01*
X344827Y128196D01*
X344915Y128267D01*
X345001Y128342D01*
X345084Y128419D01*
X345164Y128499D01*
X345241Y128582D01*
X345316Y128668D01*
X345387Y128756D01*
X345455Y128846D01*
X345520Y128939D01*
X345582Y129034D01*
X345640Y129131D01*
X345695Y129230D01*
X345746Y129331D01*
X345794Y129434D01*
X345839Y129538D01*
X345879Y129644D01*
X345916Y129751D01*
X345949Y129859D01*
X345979Y129969D01*
X346004Y130079D01*
X346026Y130190D01*
X346043Y130302D01*
X346057Y130415D01*
X346067Y130528D01*
X346073Y130641D01*
X346075Y130754D01*
X346075Y139192D01*
X353878Y139192D02*
X353878Y127508D01*
X353878Y133350D02*
X352256Y134324D01*
X352255Y134323D02*
X352182Y134370D01*
X352111Y134419D01*
X352041Y134472D01*
X351975Y134528D01*
X351911Y134587D01*
X351849Y134648D01*
X351791Y134712D01*
X351735Y134779D01*
X351683Y134848D01*
X351633Y134920D01*
X351587Y134994D01*
X351544Y135069D01*
X351505Y135147D01*
X351469Y135226D01*
X351437Y135307D01*
X351408Y135389D01*
X351383Y135472D01*
X351362Y135556D01*
X351345Y135641D01*
X351331Y135727D01*
X351322Y135813D01*
X351316Y135900D01*
X351314Y135987D01*
X351316Y136074D01*
X351322Y136161D01*
X351332Y136247D01*
X351345Y136333D01*
X351363Y136418D01*
X351384Y136502D01*
X351409Y136585D01*
X351438Y136668D01*
X351470Y136748D01*
X351506Y136827D01*
X351545Y136905D01*
X351588Y136980D01*
X351635Y137054D01*
X351684Y137125D01*
X351737Y137195D01*
X351792Y137261D01*
X351851Y137325D01*
X351912Y137387D01*
X351977Y137446D01*
X352043Y137501D01*
X352112Y137554D01*
X352184Y137604D01*
X352257Y137650D01*
X352333Y137693D01*
X352410Y137732D01*
X352489Y137768D01*
X352570Y137801D01*
X352652Y137829D01*
X352735Y137855D01*
X352819Y137876D01*
X352905Y137893D01*
X352905Y137894D02*
X353045Y137918D01*
X353187Y137938D01*
X353328Y137954D01*
X353470Y137965D01*
X353613Y137973D01*
X353755Y137977D01*
X353898Y137978D01*
X354041Y137974D01*
X354183Y137966D01*
X354325Y137954D01*
X354467Y137938D01*
X354608Y137919D01*
X354749Y137895D01*
X354889Y137868D01*
X355028Y137836D01*
X355166Y137801D01*
X355304Y137762D01*
X355440Y137719D01*
X355574Y137673D01*
X355708Y137622D01*
X355840Y137569D01*
X355970Y137511D01*
X356099Y137450D01*
X356226Y137385D01*
X356352Y137317D01*
X356475Y137245D01*
X353878Y133350D02*
X355501Y132376D01*
X355502Y132377D02*
X355575Y132330D01*
X355646Y132281D01*
X355716Y132228D01*
X355782Y132172D01*
X355846Y132113D01*
X355908Y132052D01*
X355966Y131988D01*
X356022Y131921D01*
X356074Y131852D01*
X356124Y131780D01*
X356170Y131706D01*
X356213Y131631D01*
X356252Y131553D01*
X356288Y131474D01*
X356320Y131393D01*
X356349Y131311D01*
X356374Y131228D01*
X356395Y131144D01*
X356412Y131059D01*
X356426Y130973D01*
X356435Y130887D01*
X356441Y130800D01*
X356443Y130713D01*
X356441Y130626D01*
X356435Y130539D01*
X356425Y130453D01*
X356412Y130367D01*
X356394Y130282D01*
X356373Y130198D01*
X356348Y130115D01*
X356319Y130032D01*
X356287Y129952D01*
X356251Y129873D01*
X356212Y129795D01*
X356169Y129720D01*
X356122Y129646D01*
X356073Y129575D01*
X356020Y129505D01*
X355965Y129439D01*
X355906Y129375D01*
X355845Y129313D01*
X355780Y129254D01*
X355714Y129199D01*
X355645Y129146D01*
X355573Y129096D01*
X355500Y129050D01*
X355424Y129007D01*
X355347Y128968D01*
X355268Y128932D01*
X355187Y128899D01*
X355105Y128871D01*
X355022Y128845D01*
X354938Y128824D01*
X354853Y128807D01*
X354852Y128806D02*
X354712Y128782D01*
X354570Y128762D01*
X354429Y128746D01*
X354287Y128735D01*
X354144Y128727D01*
X354002Y128723D01*
X353859Y128722D01*
X353716Y128726D01*
X353574Y128734D01*
X353432Y128746D01*
X353290Y128762D01*
X353149Y128781D01*
X353008Y128805D01*
X352868Y128832D01*
X352729Y128864D01*
X352591Y128899D01*
X352453Y128938D01*
X352317Y128981D01*
X352183Y129027D01*
X352049Y129078D01*
X351917Y129131D01*
X351787Y129189D01*
X351658Y129250D01*
X351531Y129315D01*
X351405Y129383D01*
X351282Y129455D01*
X364871Y139192D02*
X364978Y139190D01*
X365084Y139184D01*
X365190Y139174D01*
X365296Y139161D01*
X365402Y139143D01*
X365506Y139122D01*
X365610Y139097D01*
X365713Y139068D01*
X365814Y139036D01*
X365914Y138999D01*
X366013Y138959D01*
X366111Y138916D01*
X366207Y138869D01*
X366301Y138818D01*
X366393Y138764D01*
X366483Y138707D01*
X366571Y138647D01*
X366656Y138583D01*
X366739Y138516D01*
X366820Y138446D01*
X366898Y138374D01*
X366974Y138298D01*
X367046Y138220D01*
X367116Y138139D01*
X367183Y138056D01*
X367247Y137971D01*
X367307Y137883D01*
X367364Y137793D01*
X367418Y137701D01*
X367469Y137607D01*
X367516Y137511D01*
X367559Y137413D01*
X367599Y137314D01*
X367636Y137214D01*
X367668Y137113D01*
X367697Y137010D01*
X367722Y136906D01*
X367743Y136802D01*
X367761Y136696D01*
X367774Y136590D01*
X367784Y136484D01*
X367790Y136378D01*
X367792Y136271D01*
X364871Y139192D02*
X364750Y139190D01*
X364629Y139184D01*
X364509Y139174D01*
X364388Y139161D01*
X364269Y139143D01*
X364149Y139122D01*
X364031Y139097D01*
X363914Y139068D01*
X363797Y139035D01*
X363682Y138999D01*
X363568Y138958D01*
X363455Y138915D01*
X363343Y138867D01*
X363234Y138816D01*
X363126Y138761D01*
X363019Y138703D01*
X362915Y138642D01*
X362813Y138577D01*
X362713Y138509D01*
X362615Y138438D01*
X362519Y138364D01*
X362426Y138287D01*
X362336Y138206D01*
X362248Y138123D01*
X362163Y138037D01*
X362080Y137948D01*
X362001Y137857D01*
X361924Y137763D01*
X361851Y137667D01*
X361781Y137569D01*
X361714Y137468D01*
X361650Y137365D01*
X361590Y137260D01*
X361533Y137153D01*
X361479Y137045D01*
X361429Y136935D01*
X361383Y136823D01*
X361340Y136710D01*
X361301Y136595D01*
X366819Y133999D02*
X366898Y134076D01*
X366974Y134157D01*
X367047Y134240D01*
X367117Y134325D01*
X367184Y134413D01*
X367248Y134503D01*
X367308Y134595D01*
X367365Y134690D01*
X367419Y134786D01*
X367470Y134884D01*
X367517Y134984D01*
X367561Y135086D01*
X367601Y135189D01*
X367637Y135293D01*
X367669Y135399D01*
X367698Y135505D01*
X367723Y135613D01*
X367745Y135721D01*
X367762Y135831D01*
X367776Y135940D01*
X367785Y136050D01*
X367791Y136161D01*
X367793Y136271D01*
X366818Y133999D02*
X361301Y127508D01*
X367792Y127508D01*
M02*
