G04 EAGLE Gerber RS-274X export*
G75*
%MOMM*%
%FSLAX34Y34*%
%LPD*%
%INSoldermask Bottom*%
%IPPOS*%
%AMOC8*
5,1,8,0,0,1.08239X$1,22.5*%
G01*
%ADD10C,1.727200*%
%ADD11C,3.403200*%
%ADD12C,2.203200*%
%ADD13P,1.649562X8X202.500000*%
%ADD14R,1.711200X1.711200*%
%ADD15C,1.711200*%
%ADD16R,1.511200X1.511200*%
%ADD17C,1.511200*%


D10*
X378460Y601980D02*
X378460Y617220D01*
X403860Y617220D02*
X403860Y601980D01*
X429260Y601980D02*
X429260Y617220D01*
X454660Y617220D02*
X454660Y601980D01*
X480060Y601980D02*
X480060Y617220D01*
X505460Y617220D02*
X505460Y601980D01*
X530860Y601980D02*
X530860Y617220D01*
X556260Y617220D02*
X556260Y601980D01*
X596900Y601980D02*
X596900Y617220D01*
X622300Y617220D02*
X622300Y601980D01*
X647700Y601980D02*
X647700Y617220D01*
X673100Y617220D02*
X673100Y601980D01*
X698500Y601980D02*
X698500Y617220D01*
X723900Y617220D02*
X723900Y601980D01*
X749300Y601980D02*
X749300Y617220D01*
X774700Y617220D02*
X774700Y601980D01*
X469900Y134620D02*
X469900Y119380D01*
X495300Y119380D02*
X495300Y134620D01*
X520700Y134620D02*
X520700Y119380D01*
X546100Y119380D02*
X546100Y134620D01*
X571500Y134620D02*
X571500Y119380D01*
X596900Y119380D02*
X596900Y134620D01*
X647700Y134620D02*
X647700Y119380D01*
X673100Y119380D02*
X673100Y134620D01*
X698500Y134620D02*
X698500Y119380D01*
X723900Y119380D02*
X723900Y134620D01*
X749300Y134620D02*
X749300Y119380D01*
X774700Y119380D02*
X774700Y134620D01*
D11*
X292100Y609600D03*
X800100Y457200D03*
X800100Y177800D03*
D12*
X691396Y372738D03*
D13*
X584200Y279400D03*
X457200Y279400D03*
X584200Y330200D03*
X457200Y330200D03*
X584200Y228600D03*
X457200Y228600D03*
X647700Y254000D03*
X520700Y254000D03*
X647700Y381000D03*
X520700Y381000D03*
X584200Y431800D03*
X457200Y431800D03*
X647700Y482600D03*
X520700Y482600D03*
X647700Y304800D03*
X520700Y304800D03*
D14*
X203200Y406400D03*
D15*
X203200Y381000D03*
X203200Y355600D03*
X203200Y330200D03*
D16*
X406400Y228600D03*
D17*
X412940Y254000D02*
X399860Y254000D01*
X399860Y279400D02*
X412940Y279400D01*
X412940Y304800D02*
X399860Y304800D01*
X399860Y330200D02*
X412940Y330200D01*
X412940Y355600D02*
X399860Y355600D01*
X399860Y381000D02*
X412940Y381000D01*
X412940Y406400D02*
X399860Y406400D01*
X399860Y431800D02*
X412940Y431800D01*
X412940Y457200D02*
X399860Y457200D01*
X399860Y482600D02*
X412940Y482600D01*
X412940Y508000D02*
X399860Y508000D01*
M02*
